<?xml version="1.0" encoding="utf-8"?>
<!-- Generator: Adobe Illustrator 16.0.3, SVG Export Plug-In . SVG Version: 6.00 Build 0)  -->
<!DOCTYPE svg PUBLIC "-//W3C//DTD SVG 1.1//EN" "http://www.w3.org/Graphics/SVG/1.1/DTD/svg11.dtd">
<svg version="1.1" id="Layer_1" xmlns="http://www.w3.org/2000/svg" xmlns:xlink="http://www.w3.org/1999/xlink" x="0px" y="0px"
	 width="188.6416016px" height="127.7197266px" viewBox="0 0 188.6416016 127.7197266"
	 style="enable-background:new 0 0 188.6416016 127.7197266;" xml:space="preserve">
<g>
	<path d="M185.9111328,89.9619141l2.7304688-2.4833984c-0.0205078-1.3574219-0.0507813-2.7138672-0.0830078-4.0703125
		l-1.6474609-3.6132813l1.5302734-1.0214844c-0.0585938-2.0605469-0.1142578-4.1201172-0.171875-6.1806641l-1.1054688-2.4648438
		l1.0078125-1.2353516c-0.046875-1.9560547-0.0859375-3.9111328-0.1064453-5.8676758
		c-6.7558594-0.8061523-71.8652344-8.5756836-78.6347656-9.3837891l26.9736328,49.1518555L136.5537109,112l-18.2558594-21.6308594
		l-2.3203125,1.6367188l20.8134766,35.7138672c1.2744141-0.1650391,2.5683594-0.2294922,3.84375-0.3925781
		c11.5566406-1.109375,22.8271484-5.5332031,32.1083984-12.5048828c6.9814453-5.2441406,13.390625-12.3876953,15.3193359-20.9511719
		L185.9111328,89.9619141z M181.9306641,70.5849609l-13.5996094,15.5429688l13.3710938-6.6855469
		c-0.0029297,0.1318359-0.0058594,0.2646484-0.0078125,0.3964844l-12.3632813,13.7890625l12.2402344-5.1787109l0.0029297,0.4443359
		l-15.2431641,15.4238281l10.8017578-3.8730469c-2.7089844,3.59375-6.1035156,6.6103516-9.7392578,9.2382813
		c-2.6796875,1.9169922-10.359375,6.2041016-16.0800781,8.0957031l4.2675781-4.9003906l-11.5,1.8398438l0.0166016-0.5830078
		l11.9833984-8.7568359l-11.8144531,2.7802734l0.0175781-0.6083984l11.796875-10.2548828l-11.6650391,3.2363281v-0.0166016
		c-4.8945313-7.7402344-22.1464844-34.9902344-25.8730469-40.878418l63.484375,8.6245117
		C181.9951172,69.0361328,181.9580078,69.8095703,181.9306641,70.5849609z"/>
</g>
<g>
	<path d="M149.9208984,38.0126953c-1.2001953-8.9199219-6.8310547-15.8671875-13.8183594-21.0913086l-2.6464844,0.394043
		l-0.6601563-2.6694336l-1.7578125-1.097168c-0.0253906-0.0151367-0.0507813-0.0302734-0.0771484-0.0454102l-4.0673828,0.6870117
		l-0.2363281-3.0585938c-1.5292969-0.777832-3.0839844-1.5097656-4.6630859-2.1894531l-3.4511719,0.6166992V7.5473633
		C111.6875,4.9321289,104.4941406,3.1269531,97.3330078,1.8994141c-12.6328125-2.1655273-25.5810547-2.484375-38.3046875-0.9321289
		C46.6635742,2.4755859,34.2133789,5.6069336,23.1181641,11.3818359
		C15.859375,15.1601563,9.1381836,20.2124023,4.7480469,27.0766602l-0.0419922,1.6762695l-1.703125,4.4375l-1.6894531,0.8125
		c-0.918457,2.6616211-0.7197266,5.309082-0.815918,9l1.3959961,2.25l-0.5205078,3.8334961L0,51.3125
		c0.0761719,2.9384766,0.1835938,6.3300781,0.2695313,10.3129883l1.6240234,2.1586914l-1.2456055,3.9726563
		c1.6367188,10.3554688,9.8969727,18.4951172,18.6533203,23.8671875c10.4931641,6.4375,22.640625,9.9404297,34.7314453,11.8134766
		c16.6469727,2.5791016,34.0727539,2.375,50.5649414-1.1142578l4.3701172-1.1279297
		c-0.1611328-1.3779297-0.3535156-3.0302734-0.5664063-4.8466797l-2.2998047-3.3515625l1.5205078-3.3164063
		c-0.1923828-1.6425781-0.3886719-3.3203125-0.5830078-4.9892578l-1.7080078-4.2529297l0.9794922-2v-0.0029297
		c-0.2041016-1.7519531-0.3955078-3.4082031-0.5683594-4.9042969l-0.953125-2.7148438l0.5351563-0.9326172
		c-0.2070313-1.828125-0.3457031-3.0830078-0.3789063-3.4570313c-5.7822266-8.0185547-20.4482422-28.3671875-22.0009766-30.5214844
		c7.9018555,1.0268555,64.2900391,8.3535156,67.0517578,8.7119141
		C150.0136719,42.4155273,150.1103516,40.2070313,149.9208984,38.0126953z M71.6572266,29.1264648l26.328125,39.6791992
		l0.0078125,0.4667969l-24.4956055,2.3554688L98.1298828,76.71875l0.0019531,0.1142578l-29.9672852,3.1289063l26.3330078,7.5
		l-37.8330078,1.1660156l21.1811523,6.8417969l-0.9785156,0.0185547
		c-11.2617188,0.1914063-22.6542969-0.8398438-33.5771484-3.6582031
		c-11.0112305-2.8417969-23.152832-7.7177734-30.2949219-17.0253906c-0.765625-0.9970703-1.4614258-2.0498047-2.0610352-3.15625
		l13.1469727,3.7294922l-15.2915039-14.5l-0.0922852-2.3422852L8.6967773,58.409668l17.1342773,4.7182617L8.5849609,45.2944336
		v-4.340332c0.0004883-0.0683594,0.0004883-0.1386719,0.0014648-0.2055664l17.2446289,8.1293945L12.5019531,29.6416016
		c3.3564453-4.5878906,8.0395508-8.0551758,12.9472656-10.8344727c5.3320313-3.0200195,11.0825195-5.2797852,16.9472656-7.0273438
		c12.1826172-3.6289063,25.0136719-5.1591797,37.7089844-4.828125c9.237793,0.2412109,18.5556641,1.4584961,27.5283203,3.8452148
		l-14.3789063,4.9975586l20.5410156-3.1489258c1.2568359,0.421875,2.5107422,0.8535156,3.7480469,1.3261719l-10.2128906,3.90625
		l14.7919922-1.9990234c0.0908203,0.0415039,2.3974609,1.1391602,2.3974609,1.1391602
		c0.0302734,0.0151367,0.0605469,0.0307617,0.0917969,0.0458984l-1.4394531,1.5639648h4.3964844
		c1.9277344,1.0952148,3.7919922,2.2983398,5.5654297,3.6293945c3.7587891,2.8208008,7.3740234,6.34375,9.3798828,10.6660156
		c0.7724609,1.6660156,1.3251953,3.3950195,1.6201172,5.2080078
		C136.4238281,37.1733398,76.0664063,29.6743164,71.6572266,29.1264648z"/>
</g>
</svg>
