<?xml version="1.0" encoding="utf-8"?>
<!-- Generator: Adobe Illustrator 16.0.3, SVG Export Plug-In . SVG Version: 6.00 Build 0)  -->
<!DOCTYPE svg PUBLIC "-//W3C//DTD SVG 1.1//EN" "http://www.w3.org/Graphics/SVG/1.1/DTD/svg11.dtd">
<svg version="1.1" id="Layer_1" xmlns="http://www.w3.org/2000/svg" xmlns:xlink="http://www.w3.org/1999/xlink" x="0px" y="0px"
	 width="380px" height="380px" viewBox="0 0 380 380" style="enable-background:new 0 0 380 380;" xml:space="preserve">
<style type="text/css">
<![CDATA[
	.st0{fill:none;}
	.st1{fill:none;stroke:#000000;stroke-width:6;stroke-miterlimit:10;}
]]>
</style>
<g>
	<path d="M281.0800781,216.8339844l2.7304688-2.4833984c-0.0205078-1.3574219-0.0507813-2.7138672-0.0830078-4.0703125
		l-1.6474609-3.6132813l1.5302734-1.0214844c-0.0585938-2.0605469-0.1142578-4.1201172-0.171875-6.1806641L282.3330078,197
		l1.0078125-1.2353516c-0.046875-1.9560547-0.0859375-3.9111328-0.1064453-5.8681641
		c-6.7558594-0.8056641-71.8652344-8.5751953-78.6347656-9.3833008l26.9736328,49.1518555l0.1494141,9.2070313
		l-18.2558594-21.6308594l-2.3203125,1.6367188l20.8134766,35.7138672c1.2744141-0.1650391,2.5683594-0.2294922,3.84375-0.3925781
		c11.5566406-1.109375,22.8271484-5.5332031,32.1083984-12.5048828c6.9814453-5.2441406,13.390625-12.3876953,15.3193359-20.9511719
		L281.0800781,216.8339844z M277.0996094,197.4570313L263.5,213l13.3710938-6.6855469
		c-0.0029297,0.1318359-0.0058594,0.2646484-0.0078125,0.3964844L264.5,220.5l12.2402344-5.1787109l0.0029297,0.4443359
		L261.5,231.1894531l10.8017578-3.8730469c-2.7089844,3.59375-6.1035156,6.6103516-9.7392578,9.2382813
		c-2.6796875,1.9169922-10.359375,6.2041016-16.0800781,8.0957031L250.75,239.75l-11.5,1.8398438l0.0166016-0.5830078L251.25,232.25
		l-11.8144531,2.7802734l0.0175781-0.6083984L251.25,224.1669922l-11.6650391,3.2363281v-0.0166016
		c-4.8945313-7.7402344-22.1464844-34.9902344-25.8730469-40.8789063l63.484375,8.625
		C277.1640625,195.9082031,277.1269531,196.6816406,277.0996094,197.4570313z"/>
</g>
<g>
	<path d="M245.0898438,164.8847656c-1.2001953-8.9199219-6.8310547-15.8671875-13.8183594-21.0913086L228.625,144.1875
		l-0.6601563-2.6694336l-1.7578125-1.097168c-0.0253906-0.0151367-0.0507813-0.0302734-0.0771484-0.0454102L222.0625,141.0625
		l-0.2363281-3.0585938c-1.5292969-0.777832-3.0839844-1.5097656-4.6630859-2.1894531l-3.4511719,0.6166992v-2.0117188
		c-6.8554688-2.6152344-14.0488281-4.4204102-21.2099609-5.6479492c-12.6328125-2.1655273-25.5810547-2.484375-38.3046875-0.9321289
		c-12.3647461,1.5083008-24.8149414,4.6396484-35.9101563,10.4145508
		c-7.2587891,3.7783203-13.9799805,8.8305664-18.3701172,15.6948242L99.875,155.625l-1.703125,4.4375l-1.6894531,0.8125
		c-0.918457,2.6616211-0.7197266,5.309082-0.815918,9l1.3959961,2.25l-0.5205078,3.8334961l-1.3730469,2.2260742
		c0.0761719,2.9384766,0.1835938,6.3300781,0.2695313,10.3134766L97.0625,190.65625l-1.2456055,3.9726563
		c1.6367188,10.3554688,9.8969727,18.4951172,18.6533203,23.8671875c10.4931641,6.4375,22.640625,9.9404297,34.7314453,11.8134766
		c16.6469727,2.5791016,34.0727539,2.375,50.5649414-1.1142578l4.3701172-1.1279297
		c-0.1611328-1.3779297-0.3535156-3.0302734-0.5664063-4.8466797l-2.2998047-3.3515625l1.5205078-3.3164063
		c-0.1923828-1.6425781-0.3886719-3.3203125-0.5830078-4.9892578L200.5,207.3105469l0.9794922-2v-0.0029297
		c-0.2041016-1.7519531-0.3955078-3.4082031-0.5683594-4.9042969l-0.953125-2.7148438l0.5351563-0.9326172
		c-0.2070313-1.828125-0.3457031-3.0830078-0.3789063-3.4570313c-5.7822266-8.0185547-20.4482422-28.3671875-22.0009766-30.5214844
		c7.9018555,1.0268555,64.2900391,8.3535156,67.0517578,8.7119141
		C245.1826172,169.2875977,245.2792969,167.0791016,245.0898438,164.8847656z M166.8261719,155.9985352l26.328125,39.6791992
		l0.0078125,0.4667969L168.6665039,198.5l24.6323242,5.0908203l0.0019531,0.1142578l-29.9672852,3.1289063l26.3330078,7.5
		L151.8334961,215.5l21.1811523,6.8417969l-0.9785156,0.0185547c-11.2617188,0.1914063-22.6542969-0.8398438-33.5771484-3.6582031
		c-11.0112305-2.8417969-23.152832-7.7177734-30.2949219-17.0253906c-0.765625-0.9970703-1.4614258-2.0498047-2.0610352-3.15625
		L119.25,202.25l-15.2915039-14.5l-0.0922852-2.3417969l-0.0004883-0.1269531L121,190l-17.2460938-17.8334961v-4.340332
		c0.0004883-0.0683594,0.0004883-0.1386719,0.0014648-0.2055664L121,175.75l-13.3291016-19.2363281
		c3.3564453-4.5878906,8.0395508-8.0551758,12.9472656-10.8344727c5.3320313-3.0200195,11.0825195-5.2797852,16.9472656-7.0273438
		c12.1826172-3.6289063,25.0136719-5.1591797,37.7089844-4.828125c9.237793,0.2412109,18.5556641,1.4584961,27.5283203,3.8452148
		l-14.3789063,4.9975586l20.5410156-3.1489258c1.2568359,0.421875,2.5107422,0.8535156,3.7480469,1.3261719L202.5,144.75
		l14.7919922-1.9990234c0.0908203,0.0415039,2.3974609,1.1391602,2.3974609,1.1391602
		c0.0302734,0.0151367,0.0605469,0.0307617,0.0917969,0.0458984L218.3417969,145.5h4.3964844
		c1.9277344,1.0952148,3.7919922,2.2983398,5.5654297,3.6293945c3.7587891,2.8208008,7.3740234,6.34375,9.3798828,10.6660156
		c0.7724609,1.6660156,1.3251953,3.3950195,1.6201172,5.2080078
		C231.5927734,164.0454102,171.2353516,156.5463867,166.8261719,155.9985352z"/>
</g>
<g>
	<path d="M116.5205078,246.5146484c0.8408203-0.3603516,1.675293-0.7490234,2.4985352-1.1367188
		c0.2006836-0.0976563,0.4213867-0.1953125,0.6040039-0.2939453l0.4785156-0.2998047l0.9555664-0.5976563l0.953125-0.5957031
		l0.1186523-0.0742188c-0.0942383,0.0625,0.2612305-0.1660156,0.2714844-0.1816406l0.2514648-0.1982422l0.5009766-0.3964844
		c0.6572266-0.546875,1.3530273-1.0175781,1.9360352-1.671875c0.5927734-0.6289063,1.2368164-1.1962891,1.7299805-1.9208984
		c0.5249023-0.6904297,1.0561523-1.3720703,1.4526367-2.1367188c1.2451172-2.1103516,1.9648438-4.3642578,2.4804688-6.4775391
		c-1.6845703-0.5351563-3.3540039-1.1162109-5.0058594-1.7431641c-0.5551758,2.0058594-1.2089844,3.8007813-2.2128906,5.3623047
		c-1.2739258,2.0498047-3.2045898,3.7314453-5.4741211,5.0253906l-0.9750977,0.5644531l-0.4887695,0.2832031
		c-0.1518555,0.0732422-0.2836914,0.1113281-0.4262695,0.1699219c-0.5600586,0.2138672-1.105957,0.4443359-1.6606445,0.6748047
		l-1.8520508,0.4853516c-0.6264648,0.1269531-1.2749023,0.1669922-1.9101563,0.265625
		c-2.5888672,0.2246094-5.3989258-0.1826172-8.4960938-0.6533203c-3.0854492-0.4716797-6.4907227-0.9150391-9.9990234-0.7607422
		c-1.112793,0.0410156-2.2314453,0.1582031-3.3486328,0.3095703c1.1040039,2.2050781,2.2768555,4.3681641,3.5175781,6.4873047
		c0.0664063-0.0048828,0.1318359-0.0166016,0.1982422-0.0214844c2.8203125-0.2236328,5.7011719,0.0283203,8.7866211,0.3935547
		c3.0683594,0.3505859,6.4472656,0.7773438,9.9707031,0.3613281c0.8745117-0.1503906,1.7539063-0.2539063,2.6108398-0.4599609
		C114.8334961,247.0224609,115.6782227,246.7685547,116.5205078,246.5146484z"/>
	<path d="M282.0517578,185.0654297c1.6914063-2.3813477,3.2880859-4.5922852,5.2431641-6.2871094
		c2.2822266-2.0581055,5.0917969-3.331543,8.2578125-3.9614258c0.6738281-0.0981445,1.8232422-0.3388672,2.4804688-0.362793
		c0.7451172-0.0957031,1.5634766-0.1044922,2.3662109-0.1279297c0.5117188,0.0048828,1.0185547,0.0371094,1.5244141,0.081543
		c-0.2792969-2.0244141-0.6123047-4.0322266-0.9970703-6.0209961c-0.1923828-0.0009766-0.3857422-0.0112305-0.5771484-0.0078125
		c-1.0283203,0.050293-2.0410156,0.0908203-3.1035156,0.2514648c-1.1630859,0.1289063-1.7910156,0.3027344-2.9042969,0.5073242
		c-3.9257813,0.8583984-7.8447266,2.7485352-10.7646484,5.5463867c-2.9667969,2.753418-4.8974609,6.0283203-6.7607422,8.7773438
		c-0.2080078,0.3095703-0.4160156,0.6098633-0.625,0.9047852
		C278.3847656,184.6279297,280.3574219,184.8632813,282.0517578,185.0654297z"/>
	<path d="M94.0498047,222.2871094c-0.7075195-0.0429688-1.4130859-0.1835938-2.1220703-0.2597656
		c-2.8359375-0.4990234-5.706543-1.7314453-8.8334961-3.0966797c-0.8549805-0.3740234-1.7387695-0.7490234-2.640625-1.1181641
		c0.6713867,2.6523438,1.4375,5.265625,2.2924805,7.8398438c2.5385742,0.9912109,5.2553711,1.9433594,8.203125,2.3847656
		c0.9501953,0.0908203,1.8930664,0.2324219,2.8413086,0.2626953c0.9516602-0.0253906,1.9008789-0.0498047,2.8476563-0.0751953
		c0.9716797-0.1357422,1.9453125-0.3027344,2.9072266-0.4707031c0.2363281-0.0439453,0.4902344-0.0830078,0.7104492-0.1337891
		l0.5893555-0.1767578l1.1762695-0.3544922l1.1728516-0.3525391l0.1464844-0.0439453
		c-0.1025391,0.0332031,0.3022461-0.09375,0.3198242-0.1074219l0.3178711-0.1347656l0.6337891-0.2714844
		c0.8378906-0.3828125,1.6972656-0.6738281,2.4868164-1.1884766c0.793457-0.4873047,1.6254883-0.8925781,2.3413086-1.5048828
		c0.7138672-0.5488281,1.4277344-1.0908203,2.0410156-1.7412109c-1.5952148-1.0078125-3.171875-2.1103516-4.7021484-3.2949219
		c-1.8022461,1.4082031-3.9702148,2.4277344-6.3378906,3.0517578l-1.1860352,0.3203125l-0.59375,0.1611328
		c-0.1811523,0.0332031-0.3364258,0.0390625-0.5058594,0.0605469c-0.6591797,0.0839844-1.3208008,0.1679688-1.9838867,0.2529297
		C95.4663086,222.2929688,94.7587891,222.2900391,94.0498047,222.2871094z"/>
	<path d="M291.5273438,233.1982422c-1.3652344-2.4394531-2.8330078-5.1191406-4.8740234-7.546875
		c-0.8574219,2.1601563-1.9472656,4.2294922-3.2275391,6.1982422c0.8232422,1.3535156,1.5996094,2.828125,2.4052734,4.4052734
		c1.125,2.203125,2.3955078,4.5537109,3.9501953,6.8095703c1.2167969-2.28125,2.3583984-4.6083984,3.4189453-6.9794922
		C292.6357422,235.1533203,292.0810547,234.1972656,291.5273438,233.1982422z"/>
	<path d="M150.3056641,249.0292969l1.6694336-1.2148438c0.5332031-0.4853516,1.0546875-0.9921875,1.5644531-1.4970703
		c0.1230469-0.125,0.2631836-0.2578125,0.3696289-0.3759766l0.2626953-0.3291016l0.5234375-0.65625
		c1.644043-2.0214844,2.9511719-4.4658203,3.4560547-7.1367188c0.1318359-0.6621094,0.2104492-1.3203125,0.25-1.9658203
		c-1.8139648-0.1640625-3.6220703-0.3652344-5.4248047-0.5927734c-0.0498047,0.4814453-0.1220703,0.9501953-0.2373047,1.4023438
		c-0.3828125,1.6181641-1.2817383,3.1552734-2.5117188,4.5361328l-0.5532227,0.6318359l-0.2773438,0.3154297
		c-0.0864258,0.0849609-0.1616211,0.1328125-0.2421875,0.2011719c-0.3178711,0.2548828-0.6181641,0.5185547-0.9233398,0.7880859
		l-1.1152344,0.7294922c-0.3857422,0.2226563-0.8076172,0.3916016-1.2036133,0.5986328
		c-1.6635742,0.7255859-3.6708984,1.1005859-5.9741211,1.5078125c-2.2915039,0.4052734-4.8676758,0.9179688-7.3857422,1.8994141
		c-2.5166016,0.9609375-4.9682617,2.34375-7.0483398,4.0546875c-1.1074219,0.8066406-2.0302734,1.7539063-3.0029297,2.6767578
		l-0.3623047,0.3476563l-0.0908203,0.0869141c-0.0795898,0.0869141,0.050293-0.0712891-0.2011719,0.2167969l-0.1484375,0.1699219
		l-0.59375,0.6806641l-1.1889648,1.3652344l-0.5957031,0.6835938c-0.1987305,0.2285156-0.4086914,0.5517578-0.6118164,0.8242188
		l-1.2211914,1.71875l-0.6054688,0.8662109c-0.1879883,0.2929688-0.3413086,0.5947266-0.5131836,0.8916016l-0.9995117,1.7988281
		c-0.3574219,0.5898438-0.5976563,1.2373047-0.875,1.8681641l-0.8056641,1.9082031l-0.6245117,1.9482422
		c-0.2128906,0.6523438-0.418457,1.3056641-0.5556641,1.9492188l-0.0605469,0.2519531
		c2.2597656,2.1328125,4.6083984,4.171875,7.0380859,6.1152344c0.5654297-3.9296875,1.2246094-7.4931641,2.7866211-10.6474609
		l0.7231445-1.4228516c0.1225586-0.234375,0.2319336-0.4833984,0.3637695-0.7060547l0.4199219-0.6396484l0.8261719-1.2871094
		c0.1484375-0.2197266,0.2451172-0.4238281,0.4345703-0.6591797l0.5693359-0.7050781l1.137207-1.4082031l0.5673828-0.703125
		l0.0996094-0.1240234l0.0664063-0.0683594l0.2773438-0.2880859c0.7412109-0.7617188,1.449707-1.5800781,2.2587891-2.2119141
		c3.1225586-2.8320313,6.7133789-4.1650391,11.2138672-5.1171875c2.2368164-0.5126953,4.7885742-1.0537109,7.2724609-2.265625
		C149.1083984,249.7060547,149.7275391,249.4013672,150.3056641,249.0292969z"/>
	<path d="M297.2509766,192.7333984c-3.328125-0.0390625-6.8046875,0.6240234-9.8769531,2.0244141l0.9013672,2.0136719
		c0.0361328,1.2314453,0.0673828,2.4589844,0.1015625,3.6875c2.6474609-1.4287109,5.6123047-2.0166016,8.7753906-1.9189453
		c0.6787109,0.0556641,1.8535156,0.0800781,2.4990234,0.2050781c0.7470703,0.0742188,1.5458984,0.25,2.3339844,0.4082031
		c0.2119141,0.0517578,0.4199219,0.1142578,0.6289063,0.171875c0.1630859-1.9970703,0.2763672-4.0087891,0.3349609-6.0341797
		c-0.9023438-0.1640625-1.7978516-0.3232422-2.7539063-0.3984375
		C299.0332031,192.7578125,298.3828125,192.7851563,297.2509766,192.7333984z"/>
	<path d="M222.0234375,289.8212891l-0.8388672-1.3574219c-0.1367188-0.2265625-0.2919922-0.4501953-0.4140625-0.6787109
		l-0.328125-0.6904297l-0.6699219-1.375c-0.1113281-0.2412109-0.234375-0.4296875-0.3369141-0.7138672l-0.3066406-0.8525391
		l-0.6123047-1.7041016l-0.3046875-0.8496094l-0.0546875-0.1503906l-0.0244141-0.0927734l-0.1015625-0.3857422
		c-0.265625-1.0292969-0.5966797-2.0595703-0.7148438-3.0791016c-0.796875-4.140625-0.0693359-7.9003906,1.4560547-12.2402344
		c0.7255859-2.1767578,1.5898438-4.6386719,1.8457031-7.390625c0.0292969-0.6904297,0.0917969-1.3779297,0.0742188-2.0654297
		c-0.0566406-0.6875-0.1132813-1.3730469-0.1699219-2.0576172c-0.1376953-0.7070313-0.2998047-1.4169922-0.4658203-2.1142578
		c-0.0429688-0.1699219-0.0839844-0.359375-0.1289063-0.5117188l-0.1445313-0.3955078l-0.2880859-0.7880859
		c-0.8720703-2.4550781-2.28125-4.8427734-4.2998047-6.6621094c-1.9912109-1.8291016-4.3564453-2.8935547-6.2607422-3.71875
		c-0.9892578-0.4257813-1.8154297-0.8242188-2.578125-1.2490234c-0.6894531-0.4511719-1.3310547-0.875-1.7529297-1.4423828
		c-0.2783203-0.2714844-0.3818359-0.5273438-0.5605469-0.7675781c-0.0429688-0.0673828-0.0888672-0.1064453-0.1367188-0.1953125
		l-0.1416016-0.3564453l-0.2841797-0.7109375l-0.0703125-0.1757813l-0.0615234-0.2607422l-0.1396484-0.5322266
		c-0.0019531-0.34375-0.1142578-0.6933594-0.0595703-1.03125c0.0009766-0.1162109,0.0136719-0.2333984,0.0253906-0.3505859
		l-1.8369141,0.4853516c-0.9140625,0.1992188-1.8320313,0.3828125-2.7509766,0.5625
		c0.0136719,0.3183594,0.0410156,0.6376953,0.0498047,0.9570313l0.1748047,0.9521484l0.0957031,0.4775391
		c0.0332031,0.1123047-0.0400391-0.0830078,0.0800781,0.28125l0.03125,0.0908203l0.0605469,0.1806641l0.2460938,0.7246094
		l0.1230469,0.3642578c0.0595703,0.1416016,0.1523438,0.3203125,0.2294922,0.4785156
		c0.3271484,0.6523438,0.6767578,1.3291016,1.1025391,1.8261719c0.7880859,1.1240234,1.8583984,1.9589844,2.8886719,2.6894531
		c1.0332031,0.6630859,2.0917969,1.2255859,3.0341797,1.6933594c1.9433594,0.9570313,3.5107422,1.8427734,4.6904297,3.0488281
		c1.1835938,1.1689453,2.0292969,2.7353516,2.5693359,4.5039063l0.2509766,0.8007813l0.1269531,0.4013672
		c0.0263672,0.1181641,0.0283203,0.2070313,0.0449219,0.3115234c0.0517578,0.4042969,0.1220703,0.7978516,0.1933594,1.1982422
		l0.0439453,1.3320313c-0.0107422,0.4453125-0.0859375,0.8935547-0.1142578,1.3398438
		c-0.2460938,1.7978516-0.96875,3.7080078-1.8183594,5.8867188c-0.8447266,2.1679688-1.7451172,4.6357422-2.2167969,7.296875
		c-0.4873047,2.6494141-0.5791016,5.4628906-0.1992188,8.1289063c0.1132813,1.3662109,0.4433594,2.6464844,0.7255859,3.9570313
		l0.1083984,0.4902344l0.0273438,0.1230469c0.0332031,0.1123047-0.0341797-0.0800781,0.0810547,0.2841797l0.0673828,0.2148438
		l0.2734375,0.8613281l0.5478516,1.7255859l0.2744141,0.8642578c0.0917969,0.2890625,0.2587891,0.6357422,0.3857422,0.9501953
		l0.8330078,1.9375l0.4257813,0.9677734c0.1533203,0.3125,0.3300781,0.6005859,0.4951172,0.9013672l1.0175781,1.7890625
		c0.3173828,0.6123047,0.7460938,1.1533203,1.140625,1.71875l1.2119141,1.6796875l1.3388672,1.546875
		c0.0644531,0.0751953,0.1308594,0.1474609,0.1953125,0.2226563c2.9394531-0.7910156,5.8320313-1.6953125,8.671875-2.7119141
		C225.6884766,294.3427734,223.5761719,292.2724609,222.0234375,289.8212891z"/>
	<path d="M187.3310547,292.6337891c-0.0546875-0.2587891-0.1289063-0.5205078-0.1694336-0.7763672l-0.0830078-0.7607422
		l-0.1835938-1.5185547c-0.0253906-0.2636719-0.0805664-0.4824219-0.0849609-0.7841797l-0.0102539-0.9072266l-0.0205078-1.8095703
		l-0.0102539-0.9033203l-0.0019531-0.1601563l0.0073242-0.09375l0.0302734-0.3984375
		c0.0864258-1.0595703,0.1108398-2.1416016,0.3325195-3.1435547c0.6030273-4.1728516,2.5219727-7.4882813,5.3842773-11.0888672
		c1.3974609-1.8203125,3.0195313-3.8623047,4.1630859-6.3789063c0.2548828-0.6435547,0.5380859-1.2724609,0.7470703-1.9277344
		c0.1708984-0.6679688,0.3417969-1.3339844,0.5126953-1.9990234c0.1015625-0.7138672,0.1806641-1.4375,0.2519531-2.1513672
		c0.015625-0.1748047,0.0390625-0.3662109,0.0458984-0.5253906l-0.0078125-0.4208984l-0.0136719-0.8388672
		c-0.0205078-2.6054688-0.5693359-5.3232422-1.8808594-7.703125c-1.2832031-2.3798828-3.1699219-4.1601563-4.6982422-5.5634766
		c-0.7963867-0.7255859-1.4453125-1.3730469-2.0268555-2.0244141c-0.5048828-0.6513672-0.9716797-1.2626953-1.1845703-1.9365234
		c-0.1738281-0.3476563-0.1879883-0.6230469-0.277832-0.9091797c-0.0195313-0.0771484-0.0493164-0.1289063-0.0649414-0.2294922
		l-0.0175781-0.3828125l-0.0356445-0.7646484l-0.0087891-0.1904297v-0.0009766l0.0268555-0.2646484l0.0410156-0.53125
		c-1.5712891,0.1796875-3.1479492,0.3232422-4.7265625,0.4492188l-0.0087891,0.0644531
		c-0.0053711,0.1171875-0.0107422-0.0908203-0.0161133,0.2929688l-0.0009766,0.0947266l-0.0009766,0.1914063l-0.0058594,0.7646484
		l-0.0024414,0.3837891c0.0092773,0.1542969,0.0390625,0.3535156,0.0605469,0.5283203
		c0.0952148,0.7236328,0.2036133,1.4775391,0.4428711,2.0869141c0.3769531,1.3203125,1.1147461,2.4589844,1.8486328,3.4863281
		c0.7592773,0.9648438,1.5756836,1.84375,2.3129883,2.59375c1.5224609,1.5400391,2.7133789,2.8916016,3.434082,4.4169922
		c0.7353516,1.4921875,1.0214844,3.2490234,0.9521484,5.0966797l-0.0234375,0.8398438l-0.0126953,0.4199219
		c-0.0126953,0.1191406-0.0400391,0.2050781-0.0595703,0.3085938c-0.0820313,0.3994141-0.1455078,0.7939453-0.2089844,1.1962891
		l-0.3945313,1.2724609c-0.15625,0.4179688-0.3740234,0.8164063-0.5473633,1.2285156
		c-0.8203125,1.6181641-2.1289063,3.1865234-3.6450195,4.9677734c-1.5078125,1.7714844-3.1669922,3.8085938-4.4833984,6.1689453
		c-1.328125,2.34375-2.3364258,4.9707031-2.8505859,7.6142578c-0.3398438,1.328125-0.4472656,2.6464844-0.6098633,3.9765625
		l-0.0576172,0.4990234l-0.0141602,0.125c-0.0063477,0.1181641-0.0068359-0.0869141-0.0170898,0.2958984l-0.0068359,0.2255859
		l-0.0234375,0.9023438l-0.0473633,1.8095703l-0.0234375,0.9072266c-0.0078125,0.3027344,0.0361328,0.6845703,0.0532227,1.0244141
		l0.1533203,2.1025391l0.0854492,1.0546875c0.0415039,0.3447266,0.1152344,0.6748047,0.1723633,1.0136719l0.3754883,2.0234375
		c0.0996094,0.6816406,0.3271484,1.3339844,0.5151367,1.9970703l0.5952148,1.984375l0.7592773,1.8994141
		c0.1176758,0.2988281,0.2373047,0.5957031,0.3618164,0.8876953C184.9321289,302.9072266,187.4550781,303,190,303
		c0.5332031,0,1.0634766-0.0126953,1.5947266-0.0205078c-1.7504883-2.9482422-3.2045898-5.7666016-3.9150391-8.7890625
		L187.3310547,292.6337891z"/>
	<path d="M259.4628906,269.4033203l-1.3125-0.9072266c-0.2148438-0.1533203-0.4472656-0.2949219-0.6503906-0.4560547
		l-0.5771484-0.5019531l-1.1650391-0.9921875c-0.1972656-0.1757813-0.3867188-0.2998047-0.59375-0.5185547l-0.6230469-0.6591797
		l-1.2421875-1.3164063l-0.6201172-0.65625l-0.1123047-0.1191406l-0.0566406-0.0722656l-0.2480469-0.3125
		c-0.6552734-0.8369141-1.3710938-1.6494141-1.8876953-2.5361328c-0.8310547-1.2099609-1.4648438-2.4541016-1.9648438-3.7519531
		c-2.1923828,0.6943359-4.4169922,1.2792969-6.6630859,1.7646484c0.6220703,2.0019531,1.484375,3.9570313,2.5732422,5.7197266
		c0.6513672,1.2060547,1.4658203,2.2480469,2.2490234,3.3359375l0.2958984,0.4052734l0.0742188,0.1015625
		c0.0751953,0.0908203-0.0634766-0.0595703,0.1875,0.2285156l0.1484375,0.1699219l0.5957031,0.6796875l1.1923828,1.3623047
		l0.5976563,0.6816406c0.1992188,0.2275391,0.4912109,0.4785156,0.7333984,0.7167969l1.5390625,1.4414063l0.7783203,0.7167969
		c0.2646484,0.2255859,0.5419922,0.4179688,0.8144531,0.6279297l1.6474609,1.2324219
		c0.5361328,0.4335938,1.1455078,0.7587891,1.7333984,1.1181641l1.7832031,1.0546875l1.4052734,0.6708984
		c2.3496094-1.8603516,4.6201172-3.8144531,6.8115234-5.8525391
		C264.1679688,271.9042969,261.6669922,270.8935547,259.4628906,269.4033203z"/>
	<path d="M78.7089844,209.6630859c1.3066406,0.2929688,2.6293945,0.4921875,3.9428711,0.5751953
		c1.0292969,0.0322266,2.0419922,0.0732422,3.1142578-0.0009766c1.1694336-0.0351563,1.809082-0.1582031,2.9355469-0.2724609
		c2.6459961-0.359375,5.3203125-1.1826172,7.7407227-2.4384766c-1.0249023-1.5771484-1.9072266-3.2353516-2.6416016-4.9609375
		c-1.7915039,0.8603516-3.7543945,1.3964844-5.8500977,1.640625c-0.6796875,0.0439453-1.8447266,0.1914063-2.5019531,0.1621094
		c-0.7504883,0.0361328-1.565918-0.0205078-2.3681641-0.0625c-1.5942383-0.1445313-3.1435547-0.4775391-4.6484375-1.0078125
		c-0.2280273-0.0791016-0.453125-0.1728516-0.6791992-0.2617188
		C78.0087891,205.2646484,78.324707,207.4755859,78.7089844,209.6630859z"/>
	<path d="M154.8081055,287.4658203l0.1635742-1.5869141c0.0302734-0.2626953,0.0429688-0.5351563,0.0859375-0.7900391
		l0.1625977-0.7470703l0.3085938-1.4990234c0.059082-0.2578125,0.0766602-0.4833984,0.168457-0.7705078l0.277832-0.8632813
		l0.5556641-1.7226563l0.2768555-0.859375l0.0498047-0.1552734l0.0361328-0.0849609l0.1552734-0.3681641
		c0.418457-0.9765625,0.7851563-1.9951172,1.3134766-2.875c1.8969727-3.7646484,4.769043-6.2988281,8.6269531-8.8037109
		c1.9033203-1.2822266,4.090332-2.7041016,5.9736328-4.7265625c0.4453125-0.5292969,0.9140625-1.0361328,1.3198242-1.5908203
		l1.121582-1.7333984c0.3232422-0.6445313,0.6279297-1.3046875,0.9223633-1.9589844
		c0.0698242-0.1611328,0.152832-0.3349609,0.2099609-0.484375l0.1269531-0.4013672l0.253418-0.7998047
		c0.8076172-2.4765625,1.1499023-5.2285156,0.6621094-7.9013672c-0.4609375-2.6650391-1.6835938-4.9511719-2.6875-6.7675781
		c-0.5244141-0.9414063-0.9345703-1.7617188-1.2792969-2.5634766c-0.1152344-0.3310547-0.222168-0.6503906-0.3110352-0.9658203
		c-1.6708984,0.0166016-3.3417969,0.0117188-5.0117188-0.0283203c0.0986328,0.9472656,0.3383789,1.859375,0.6005859,2.7158203
		c0.4135742,1.15625,0.9086914,2.2490234,1.3696289,3.1943359c0.9541016,1.9443359,1.6542969,3.6035156,1.8530273,5.2792969
		c0.2236328,1.6474609-0.0629883,3.4052734-0.715332,5.1357422l-0.2895508,0.7880859l-0.1450195,0.3945313
		c-0.0507813,0.1083984-0.1035156,0.1816406-0.1542969,0.2744141c-0.2050781,0.3515625-0.390625,0.7050781-0.5786133,1.0673828
		l-0.7788086,1.0810547c-0.2797852,0.3466797-0.612793,0.6552734-0.9082031,0.9912109
		c-1.2919922,1.2734375-3.0307617,2.3447266-5.0341797,3.5527344c-1.9926758,1.2011719-4.2128906,2.6054688-6.2104492,4.4248047
		c-2.003418,1.8007813-3.7944336,3.9726563-5.1210938,6.3164063c-0.7441406,1.1503906-1.2646484,2.3662109-1.8413086,3.5761719
		l-0.2133789,0.4550781l-0.0532227,0.1142578c-0.0429688,0.109375,0.0214844-0.0849609-0.1098633,0.2744141l-0.0776367,0.2119141
		l-0.309082,0.8486328l-0.6196289,1.7011719l-0.3105469,0.8515625c-0.1030273,0.2851563-0.1831055,0.6611328-0.2744141,0.9892578
		l-0.5224609,2.0419922l-0.2539063,1.0273438c-0.0698242,0.3398438-0.1049805,0.6767578-0.1582031,1.015625l-0.2871094,2.0380859
		c-0.121582,0.6787109-0.1132813,1.3691406-0.1450195,2.0576172l-0.0664063,2.0703125l0.1166992,2.0429688
		c0.0292969,0.5576172,0.0712891,1.1103516,0.1386719,1.6494141c2.8427734,1.1640625,5.7416992,2.2197266,8.6943359,3.1533203
		C155.0766602,294.1328125,154.5019531,290.7744141,154.8081055,287.4658203z"/>
	<path d="M249.9101563,180.8056641l0.0322266,0.4277344c0.5039063,0.0600586,1.0058594,0.1201172,1.5068359,0.1796875
		c-0.4179688-0.1831055-0.8125-0.4008789-1.2568359-0.5332031L249.9101563,180.8056641z"/>
</g>
<g>
	<path class="st1" d="M309,190c0-4.2363281,1.7753906-8.5258789,1.3466797-12.6494141
		c-0.4365234-4.2050781-3.0644531-8.0351563-3.9238281-12.0996094c-0.8730469-4.1279297-0.0292969-8.6928711-1.3144531-12.6523438
		c-1.3007813-4.0058594-4.6708984-7.203125-6.3691406-11.0117188c-1.7119141-3.840332-1.8417969-8.4819336-3.9335938-12.0966797
		c-2.1025391-3.6347656-6.0644531-6.0595703-8.5253906-9.4404297c-2.4677734-3.3911133-3.5576172-7.9057617-6.359375-11.015625
		c-2.8046875-3.112793-7.1816406-4.6655273-10.2949219-7.4702148c-3.1103516-2.8017578-5.109375-6.9951172-8.5-9.4628906
		c-3.3808594-2.4604492-7.9853516-3.0742188-11.6191406-5.1772461c-3.6152344-2.0913086-6.4404297-5.777832-10.2802734-7.4902344
		c-3.8085938-1.6982422-8.4375-1.3393555-12.4433594-2.6401367c-3.9589844-1.2851563-7.4921875-4.300293-11.6201172-5.1733398
		c-4.0644531-0.8598633-8.515625,0.4594727-12.7207031,0.0224609C198.3183594,71.2143555,194.2363281,69,189.9995117,69
		s-8.3188477,2.2143555-12.4423828,2.6425781c-4.2050781,0.4370117-8.65625-0.8823242-12.7207031-0.0224609
		c-4.1279297,0.8730469-7.6611328,3.8881836-11.6206055,5.1738281c-4.0053711,1.3007813-8.6347656,0.9418945-12.4433594,2.6401367
		c-3.840332,1.7124023-6.6660156,5.3994141-10.2807617,7.4907227c-3.6342773,2.1030273-8.237793,2.7167969-11.6186523,5.1772461
		c-3.3911133,2.4682617-5.390625,6.6616211-8.5004883,9.4633789c-3.112793,2.8046875-7.4907227,4.3574219-10.2954102,7.4702148
		c-2.8017578,3.1098633-3.8911133,7.6245117-6.359375,11.0161133c-2.4599609,3.3803711-6.4223633,5.8051758-8.5253906,9.4399414
		c-2.0913086,3.6142578-2.2207031,8.2563477-3.9326172,12.0961914c-1.6982422,3.8085938-5.0683594,7.0058594-6.3686523,11.0112305
		c-1.2856445,3.9589844-0.440918,8.5239258-1.3144531,12.6513672c-0.8598633,4.0644531-3.4868164,7.8945313-3.9238281,12.0996094
		C69.2246094,181.4736328,70.9995117,185.7636719,70.9995117,190s-1.7749023,8.5263672-1.3466797,12.6494141
		c0.4370117,4.2050781,3.0639648,8.0351563,3.9238281,12.0996094c0.8730469,4.1279297,0.0288086,8.6933594,1.3144531,12.6523438
		c1.300293,4.0058594,4.6704102,7.203125,6.3686523,11.0117188c1.7124023,3.8398438,1.8417969,8.4824219,3.9331055,12.0966797
		c2.1030273,3.6347656,6.0654297,6.0585938,8.5258789,9.4394531c2.4682617,3.3916016,3.5581055,7.90625,6.3603516,11.0166016
		c2.8046875,3.1123047,7.1821289,4.6660156,10.2949219,7.4707031c3.1098633,2.8007813,5.1088867,6.9941406,8.5,9.4628906
		c3.3808594,2.4599609,7.984375,3.0742188,11.6186523,5.1767578c3.6147461,2.0917969,6.4404297,5.7783203,10.2802734,7.4902344
		c3.8085938,1.6982422,8.4379883,1.3388672,12.4433594,2.6396484c3.9589844,1.2861328,7.4916992,4.3007813,11.6196289,5.1738281
		c4.0644531,0.859375,8.515625-0.4599609,12.7207031-0.0234375C181.6801758,308.7851563,185.7626953,311,189.9995117,311
		s8.3188477-2.2148438,12.4428711-2.6435547c4.2050781-0.4365234,8.6552734,0.8828125,12.7207031,0.0234375
		c4.1279297-0.8730469,7.6611328-3.8876953,11.6210938-5.1738281c4.0048828-1.3007813,8.6347656-0.9414063,12.4423828-2.6396484
		c3.8408203-1.7128906,6.6660156-5.3994141,10.28125-7.4902344c3.6347656-2.1035156,8.2373047-2.7177734,11.6181641-5.1777344
		c3.3916016-2.4677734,5.3916016-6.6611328,8.5009766-9.4628906c3.1132813-2.8046875,7.4912109-4.3583984,10.2958984-7.4716797
		c2.8017578-3.109375,3.890625-7.6240234,6.359375-11.015625c2.4599609-3.3808594,6.421875-5.8046875,8.5244141-9.4394531
		c2.0917969-3.6142578,2.2216797-8.2558594,3.9335938-12.0966797c1.6982422-3.8085938,5.0683594-7.0058594,6.3681641-11.0107422
		c1.2861328-3.9589844,0.4414063-8.5244141,1.3144531-12.6513672c0.859375-4.0644531,3.4873047-7.8945313,3.9238281-12.0996094
		C310.7753906,198.5263672,309,194.2363281,309,190z"/>
</g>
<path d="M374.4667969,213.3115234c0.4833984-3.8886719,4.9169922-7.4248047,5.1650391-11.3818359
	c0.2441406-3.8994141-3.7177734-7.9628906-3.7177734-11.9296875c0-3.9628906,3.9619141-8.0258789,3.7167969-11.9291992
	c-0.2470703-3.956543-4.6806641-7.4970703-5.1640625-11.3813477c-0.4892578-3.9272461,2.9316406-8.4501953,2.2011719-12.2998047
	c-0.7373047-3.8862305-5.5791016-6.8432617-6.5546875-10.6391602c-0.9746094-3.8300781,1.8447266-8.7480469,0.6357422-12.4824219
	c-1.2177734-3.7558594-6.3955078-6.0756836-7.8427734-9.7260742c-1.4550781-3.6708984,0.7275391-8.9072266-0.9511719-12.4589844
	c-1.6777344-3.5683594-7.1103516-5.2197266-9.0048828-8.6630859c-1.9023438-3.4521484-0.3974609-8.9238281-2.5097656-12.2416992
	c-2.1103516-3.3266602-7.7021484-4.2827148-10.0224609-7.4619141c-2.3164063-3.1855469-1.5087891-8.7998047-4.0126953-11.8325195
	c-2.5136719-3.0322266-8.1875-3.2822266-10.8808594-6.152832c-2.6933594-2.8681641-2.5927734-8.5419922-5.4638672-11.2358398
	c-2.8642578-2.6967773-8.5175781-2.2416992-11.5566406-4.7519531c-3.0292969-2.5112305-3.6298828-8.1513672-6.8183594-10.472168
	c-3.1835938-2.3120117-8.7373047-1.1538086-12.0634766-3.2670898c-3.3105469-2.1113281-4.6201172-7.6313477-8.0712891-9.5361328
	c-3.4472656-1.8959961-8.8076172-0.0493164-12.3798828-1.730957c-3.5478516-1.6743164-5.5429688-6.9892578-9.2060547-8.4404297
	c-3.6503906-1.4467773-8.7402344,1.059082-12.4960938-0.1586914c-3.7304688-1.2128906-6.3740234-6.2329102-10.2080078-7.2124023
	c-3.7958984-0.9711914-8.5283203,2.1591797-12.4111328,1.4223633c-3.8457031-0.7299805-7.1035156-5.3764648-11.0341797-5.8691406
	c-3.8808594-0.4868164-8.1845703,3.2119141-12.1416016,2.9682617C197.7744141,4.2060547,193.9667969,0,189.9995117,0
	c-3.9633789,0-7.7749023,4.2060547-11.6782227,4.4467773c-3.9526367,0.2436523-8.2524414-3.4555664-12.1367188-2.9682617
	c-3.9311523,0.4926758-7.1850586,5.1391602-11.034668,5.8691406c-3.8862305,0.7368164-8.6157227-2.3930664-12.4150391-1.421875
	c-3.8266602,0.9790039-6.4741211,5.9990234-10.2045898,7.2124023c-3.7558594,1.2172852-8.8432617-1.2880859-12.4936523,0.1586914
	c-3.6708984,1.4536133-5.6616211,6.7661133-9.2133789,8.440918c-3.5683594,1.6821289-8.9331055-0.1645508-12.3725586,1.7319336
	c-3.4560547,1.9042969-4.7617188,7.4267578-8.0795898,9.5351563c-3.3266602,2.1137695-8.8803711,0.9560547-12.0595703,3.2709961
	c-3.1855469,2.3178711-3.7890625,7.9584961-6.8217773,10.4697266c-3.0322266,2.5102539-8.6894531,2.0551758-11.5561523,4.7519531
	c-2.8681641,2.6938477-2.7675781,8.3686523-5.4614258,11.2363281c-2.6967773,2.8706055-8.3652344,3.1201172-10.8769531,6.1523438
	c-2.5112305,3.0327148-1.6992188,8.6474609-4.0195313,11.8330078c-2.3125,3.1791992-7.9042969,4.1352539-10.0219727,7.4619141
	c-2.1079102,3.3173828-0.6030273,8.7890625-2.5048828,12.2407227c-1.8950195,3.4433594-7.3271484,5.0947266-9.0087891,8.6630859
	c-1.6743164,3.5517578,0.5073242,8.7875977-0.9472656,12.4584961c-1.4467773,3.6503906-6.6245117,5.9697266-7.8422852,9.7255859
	c-1.2128906,3.734375,1.6147461,8.6518555,0.6313477,12.4824219c-0.9711914,3.7954102-5.8134766,6.7519531-6.550293,10.6386719
	c-0.7299805,3.8491211,2.6899414,8.371582,2.2011719,12.2988281c-0.4868164,3.8837891-4.9208984,7.4248047-5.1645508,11.3813477
	C0.1274414,181.9741211,4.0854492,186.0371094,4.0854492,190c0,3.9667969-3.9580078,8.0302734-3.7172852,11.9296875
	c0.2436523,3.9570313,4.6772461,7.4931641,5.1645508,11.3808594c0.4887695,3.9238281-2.9311523,8.453125-2.2011719,12.2998047
	c0.7368164,3.8818359,5.5795898,6.8388672,6.5507813,10.6425781c0.9829102,3.8271484-1.8447266,8.7441406-0.6313477,12.4746094
	c1.2172852,3.7558594,6.3955078,6.0839844,7.8422852,9.7265625c1.4545898,3.671875-0.7270508,8.9072266,0.9477539,12.4628906
	c1.6816406,3.5722656,7.1137695,5.2197266,9.0087891,8.6591797c1.9018555,3.4599609,0.3974609,8.9238281,2.5053711,12.2412109
	c2.1176758,3.3271484,7.7099609,4.2871094,10.0224609,7.4638672c2.3203125,3.1875,1.5087891,8.8017578,4.0200195,11.8310547
	c2.5141602,3.0400391,8.1801758,3.2861328,10.8769531,6.1572266c2.6938477,2.8720703,2.5932617,8.5419922,5.4609375,11.2363281
	c2.8666992,2.6933594,8.5244141,2.2373047,11.5566406,4.7519531c3.0327148,2.5107422,3.6367188,8.1503906,6.8217773,10.4667969
	c3.1796875,2.3125,8.7333984,1.1542969,12.0600586,3.2724609c3.3173828,2.1113281,4.6230469,7.6337891,8.0786133,9.5361328
	c3.4394531,1.8945313,8.8037109,0.0478516,12.3720703,1.7255859c3.5517578,1.6787109,5.5424805,6.9902344,9.2133789,8.4453125
	c3.6499023,1.4462891,8.7368164-1.0634766,12.4931641,0.1621094c3.7299805,1.2089844,6.3774414,6.2255859,10.2041016,7.2080078
	c3.7993164,0.9755859,8.5283203-2.1591797,12.4150391-1.421875c3.8491211,0.7294922,7.1025391,5.3798828,11.0336914,5.8691406
	c3.8842773,0.4833984,8.184082-3.2158203,12.1367188-2.96875C182.2246094,375.7978516,186.0361328,380,189.9995117,380
	c3.9672852,0,7.7749023-4.2021484,11.6743164-4.4472656c3.9570313-0.2470703,8.2607422,3.4521484,12.140625,2.96875
	c3.9316406-0.4892578,7.1894531-5.1396484,11.0361328-5.8691406c3.8818359-0.7373047,8.6142578,2.3974609,12.4101563,1.421875
	c3.8349609-0.9824219,6.4785156-5.9990234,10.2089844-7.2080078c3.7558594-1.2255859,8.8466797,1.2841797,12.4970703-0.1630859
	c3.6640625-1.4550781,5.6582031-6.7666016,9.2060547-8.4453125c3.5722656-1.6777344,8.9326172,0.1689453,12.3798828-1.7265625
	c3.4521484-1.9013672,4.7617188-7.4238281,8.0712891-9.5361328c3.3271484-2.1181641,8.8808594-0.9599609,12.0644531-3.2724609
	c3.1884766-2.3164063,3.7890625-7.9560547,6.8183594-10.4677734c3.0400391-2.5136719,8.6923828-2.0595703,11.5556641-4.7519531
	c2.8710938-2.6933594,2.7705078-8.3642578,5.4648438-11.2363281c2.6923828-2.8710938,8.3662109-3.1171875,10.8798828-6.1572266
	c2.5039063-3.0292969,1.6962891-8.6425781,4.0126953-11.8320313c2.3203125-3.1757813,7.9121094-4.1357422,10.0224609-7.4619141
	c2.1113281-3.3173828,0.6064453-8.7822266,2.5087891-12.2412109c1.8945313-3.4394531,7.3271484-5.0869141,9.0048828-8.6591797
	c1.6787109-3.5556641-0.5039063-8.7910156,0.9511719-12.4619141c1.4462891-3.6425781,6.6240234-5.9707031,7.8417969-9.7265625
	c1.2089844-3.7304688-1.6103516-8.6474609-0.6357422-12.4736328c0.9755859-3.8037109,5.8173828-6.7597656,6.5546875-10.6425781
	C377.3984375,221.7646484,373.9785156,217.234375,374.4667969,213.3115234z M189.9995117,366.71875
	c-97.597168,0-176.71875-79.1210938-176.71875-176.71875c0-97.597168,79.121582-176.71875,176.71875-176.71875
	C287.5976563,13.28125,366.71875,92.402832,366.71875,190C366.71875,287.5976563,287.5976563,366.71875,189.9995117,366.71875z"/>
<path id="SVGID_x5F_1_x5F_" class="st0" d="M189.9995117,40.5839844c82.5200195,0,149.4165039,66.8959961,149.4165039,149.4160156
	c0,82.5205078-66.8964844,149.4160156-149.4165039,149.4160156S40.5834961,272.5205078,40.5834961,190
	C40.5834961,107.4799805,107.4794922,40.5839844,189.9995117,40.5839844"/>
<text><textPath  xlink:href="#SVGID_x5F_1_x5F_" startOffset="1075%">
<tspan  style="font-family:'Vani-Bold'; font-size:50;">TOTAL</tspan></textPath>
</text>
<path id="SVGID_x5F_2_x5F_" class="st0" d="M189.9995117,40.5839844c-82.5200195,0-149.4160156,66.8959961-149.4160156,149.4160156
	c0,82.5205078,66.8959961,149.4160156,149.4160156,149.4160156S339.4160156,272.5205078,339.4160156,190
	C339.4160156,107.4799805,272.5195313,40.5839844,189.9995117,40.5839844"/>
<text><textPath  xlink:href="#SVGID_x5F_2_x5F_" startOffset="25%">
<tspan  style="font-family:'Vani-Bold'; font-size:50;">BRIECALL</tspan></textPath>
</text>
<g>
	<polygon points="33.9711914,198.7871094 36.1376953,188.671875 27.1879883,183.4765625 37.4775391,182.4169922 
		39.6484375,172.2998047 43.8349609,181.7573242 54.128418,180.6938477 46.4277344,187.6035156 50.6210938,197.0644531 
		41.6704102,191.8710938 	"/>
	<polygon points="40.4726563,139.2734375 46.3964844,130.7880859 40.1582031,122.5332031 50.0566406,125.5449219 
		55.980957,117.0625 56.1748047,127.4072266 66.0722656,130.4189453 56.2958984,133.8017578 56.487793,144.1445313 
		50.2524414,135.8886719 	"/>
</g>
<g>
	<polygon points="346.0244141,198.7851563 343.8583984,188.6679688 352.8105469,183.4746094 342.5195313,182.4150391 
		340.3505859,172.2978516 336.1650391,181.7558594 325.8710938,180.6923828 333.5712891,187.6015625 329.3779297,197.0605469 
		338.328125,191.8691406 	"/>
	<polygon points="339.5273438,139.2734375 333.6044922,130.7880859 339.8417969,122.5332031 329.9433594,125.5449219 
		324.0185547,117.0625 323.8251953,127.4072266 313.9277344,130.4189453 323.7050781,133.8007813 323.5126953,144.1445313 
		329.7480469,135.8886719 	"/>
</g>
</svg>
