<?xml version="1.0" encoding="utf-8"?>
<!-- Generator: Adobe Illustrator 16.0.3, SVG Export Plug-In . SVG Version: 6.00 Build 0)  -->
<!DOCTYPE svg PUBLIC "-//W3C//DTD SVG 1.1//EN" "http://www.w3.org/Graphics/SVG/1.1/DTD/svg11.dtd">
<svg version="1.1" id="Layer_1" xmlns="http://www.w3.org/2000/svg" xmlns:xlink="http://www.w3.org/1999/xlink" x="0px" y="0px"
	 width="354.152832px" height="215.5429688px" viewBox="0 0 354.152832 215.5429688"
	 style="enable-background:new 0 0 354.152832 215.5429688;" xml:space="preserve">
<style type="text/css">
<![CDATA[
	.st0{fill:#E6E5E1;}
	.st1{fill:#EFE3B8;}
	.st2{fill:#C6BBA9;}
]]>
</style>
<polygon class="st1" points="279.762207,118.3310547 279.762207,70.6645508 139.9638672,52.8334961 148.7431641,74.9829102 
	148.7431641,101.6743164 "/>
<path class="st2" d="M139.9638672,145.3339844c-39.4023438,0-71.9594727-7.2568359-95.7333984-18.6767578
	C15.7973633,113-0.0546875,93.3837891,0.0126953,73.0849609H0v47.8632813h0.0053711
	c0.0620117,37.2011719,53.5825195,72.0527344,139.9584961,72.0527344c19.1572266,0,37.4135742-1.9902344,54.1000977-5.6240234
	v-47.6669922C177.3774414,143.34375,159.1210938,145.3339844,139.9638672,145.3339844z"/>
<path class="st0" d="M279.762207,70.6645508c-0.328125-5.9775391-2.0849609-11.9555664-5.2919922-17.8310547
	C256.8510742,20.5561523,198.3208008,0,139.9638672,0C81.6054688,0,23.0761719,20.5561523,5.456543,52.8334961
	c-23.8735352,43.7358398,32.3344727,92.5004883,134.5073242,92.5004883c19.1572266,0,37.4135742-1.9902344,54.1000977-5.6240234
	l-54.1000977-86.8764648L279.762207,70.6645508z"/>
<polygon class="st2" points="279.762207,114.7177734 169.8188477,100.7773438 172.2368164,104.6611328 279.762207,118.3310547 "/>
<polygon class="st2" points="139.9638672,52.8334961 142.53125,56.956543 276.3266602,73.9511719 276.3266602,88.5786133 
	279.762207,89.0170898 279.762207,74.3876953 279.762207,70.6645508 "/>
<polygon class="st1" points="214.2973633,80.6669922 214.2973633,128.6669922 268.3979492,215.5429688 268.3979492,167.5429688 "/>
<path class="st2" d="M354.0961914,102.1943359c-1.1757813,27.5566406-32.2685547,53.7119141-85.6982422,65.3486328
	l-1.9365234-3.1113281v0.0019531l-52.1640625-83.7666016v5.6669922l52.15625,82.8515625l-0.1669922,37.7792969
	l-51.9892578-82.9638672v4.6660156l54.1005859,86.8759766c55.8144531-12.15625,87.2783203-40.1542969,85.6982422-69.0449219
	V102.1943359z"/>
<path class="st0" d="M268.3979492,167.5429688c55.8144531-12.15625,87.2783203-40.1542969,85.6982422-69.0449219
	L214.2973633,80.6669922L268.3979492,167.5429688z"/>
</svg>
