<?xml version="1.0" encoding="utf-8"?>
<!-- Generator: Adobe Illustrator 16.0.3, SVG Export Plug-In . SVG Version: 6.00 Build 0)  -->
<!DOCTYPE svg PUBLIC "-//W3C//DTD SVG 1.1//EN" "http://www.w3.org/Graphics/SVG/1.1/DTD/svg11.dtd">
<svg version="1.1" id="logo" xmlns="http://www.w3.org/2000/svg" xmlns:xlink="http://www.w3.org/1999/xlink" x="0px" y="0px"
	 width="188.6px" height="188.6px" viewBox="0 0 188.6 188.6" style="enable-background:new 0 0 188.6 188.6;" xml:space="preserve"
	>
<style type="text/css">
<![CDATA[
	.logo-fill{fill:#000000;}
]]>
</style>
<g>
	<g>
		<path class="logo-fill" d="M188.6,117.9c0-1.4-0.1-2.7-0.1-4.1l-1.6-3.6l1.5-1c-0.1-2.1-0.1-4.1-0.2-6.2l-1.1-2.5l1-1.2
			c0-2-0.1-3.9-0.1-5.9c-6.8-0.8-71.9-8.6-78.6-9.4l27,49.2l0.1,9.2l-18.3-21.6l-2.3,1.6l20.8,35.7c1.3-0.2,2.6-0.2,3.8-0.4
			c11.6-1.1,22.8-5.5,32.1-12.5c7-5.2,13.4-12.4,15.3-21l-2.2-3.9L188.6,117.9z M181.9,101l-13.6,15.5l13.4-6.7c0,0.1,0,0.3,0,0.4
			l-12.4,13.8l12.2-5.2l0,0.4l-15.2,15.4l10.8-3.9c-2.7,3.6-6.1,6.6-9.7,9.2c-2.7,1.9-10.4,6.2-16.1,8.1l4.3-4.9l-11.5,1.8l0-0.6
			l12-8.8l-11.8,2.8l0-0.6l11.8-10.3l-11.7,3.2v0c-4.9-7.7-22.1-35-25.9-40.9l63.5,8.6C182,99.5,182,100.3,181.9,101z"/>
		<path class="logo-fill" d="M106.1,123.5l1.5-3.3c-0.2-1.6-0.4-3.3-0.6-5l-1.7-4.3l1-2v0c-0.2-1.8-0.4-3.4-0.6-4.9l-1-2.7l0.5-0.9
			c-0.2-1.8-0.3-3.1-0.4-3.5c-5.8-8-20.4-28.4-22-30.5c7.9,1,64.3,8.4,67.1,8.7c0-2.2,0.1-4.4-0.1-6.6c-1.2-8.9-6.8-15.9-13.8-21.1
			l-2.6,0.4l-0.7-2.7L131,44c0,0-0.1,0-0.1,0l-4.1,0.7l-0.2-3.1c-1.5-0.8-3.1-1.5-4.7-2.2l-3.5,0.6v-2c-6.9-2.6-14-4.4-21.2-5.6
			c-12.6-2.2-25.6-2.5-38.3-0.9c-12.4,1.5-24.8,4.6-35.9,10.4c-7.3,3.8-14,8.8-18.4,15.7l0,1.7L3,63.7l-1.7,0.8
			c-0.9,2.7-0.7,5.3-0.8,9l1.4,2.3l-0.5,3.8L0,81.8c0.1,2.9,0.2,6.3,0.3,10.3l1.6,2.2l-1.2,4c1.6,10.4,9.9,18.5,18.7,23.9
			c10.5,6.4,22.6,9.9,34.7,11.8c16.6,2.6,34.1,2.4,50.6-1.1l4.4-1.1c-0.2-1.4-0.4-3-0.6-4.8L106.1,123.5z M94.5,117.9l-37.8,1.2
			l21.2,6.8l-1,0c-11.3,0.2-22.7-0.8-33.6-3.7c-11-2.8-23.2-7.7-30.3-17c-0.8-1-1.5-2.1-2.1-3.2l13.1,3.7L8.8,91.3L8.7,89l0-0.1
			l17.1,4.7L8.6,75.8v-4.3c0-0.1,0-0.1,0-0.2l17.2,8.1L12.5,60.1c3.4-4.6,8-8.1,12.9-10.8c5.3-3,11.1-5.3,16.9-7
			c12.2-3.6,25-5.2,37.7-4.8c9.2,0.2,18.6,1.5,27.5,3.8l-14.4,5l20.5-3.1c1.3,0.4,2.5,0.9,3.7,1.3l-10.2,3.9l14.8-2
			c0.1,0,2.4,1.1,2.4,1.1c0,0,0.1,0,0.1,0l-1.4,1.6h4.4c1.9,1.1,3.8,2.3,5.6,3.6c3.8,2.8,7.4,6.3,9.4,10.7c0.8,1.7,1.3,3.4,1.6,5.2
			c-7.7-1-68.1-8.5-72.5-9L98,99.3l0,0.5l-24.5,2.4l24.6,5.1l0,0.1l-30,3.1L94.5,117.9z"/>
	</g>
</g>
</svg>
