<?xml version="1.0" encoding="utf-8"?>
<!-- Generator: Adobe Illustrator 16.0.3, SVG Export Plug-In . SVG Version: 6.00 Build 0)  -->
<!DOCTYPE svg PUBLIC "-//W3C//DTD SVG 1.1//EN" "http://www.w3.org/Graphics/SVG/1.1/DTD/svg11.dtd">
<svg version="1.1" id="logo-cap" xmlns="http://www.w3.org/2000/svg" xmlns:xlink="http://www.w3.org/1999/xlink" x="0px" y="0px"
	 width="248px" height="248px" viewBox="0 0 248 248" style="enable-background:new 0 0 248 248;" xml:space="preserve">
<style type="text/css">
<![CDATA[
	.logo-fill{fill:#ffffff;}
]]>
</style>
<g>
	<g>
		<path class="logo-fill" d="M217.8,148.3c0-1.4-0.1-2.7-0.1-4.1l-1.6-3.6l1.5-1c-0.1-2.1-0.1-4.1-0.2-6.2l-1.1-2.5l1-1.2
			c0-2-0.1-3.9-0.1-5.9c-6.8-0.8-71.9-8.6-78.6-9.4l27,49.2l0.1,9.2l-18.3-21.6l-2.3,1.6l20.8,35.7c1.3-0.2,2.6-0.2,3.8-0.4
			c11.6-1.1,22.8-5.5,32.1-12.5c7-5.2,13.4-12.4,15.3-21l-2.2-3.9L217.8,148.3z M211.1,131.4L197.5,147l13.4-6.7c0,0.1,0,0.3,0,0.4
			l-12.4,13.8l12.2-5.2l0,0.4l-15.2,15.4l10.8-3.9c-2.7,3.6-6.1,6.6-9.7,9.2c-2.7,1.9-10.4,6.2-16.1,8.1l4.3-4.9l-11.5,1.8l0-0.6
			l12-8.8l-11.8,2.8l0-0.6l11.8-10.3l-11.7,3.2v0c-4.9-7.7-22.1-35-25.9-40.9l63.5,8.6C211.2,129.9,211.1,130.7,211.1,131.4z"/>
		<path class="logo-fill" d="M29.2,112.2c0.1,2.9,0.2,6.3,0.3,10.3l1.6,2.2l-1.2,4c1.6,10.4,9.9,18.5,18.7,23.9
			c10.5,6.4,22.6,9.9,34.7,11.8c16.6,2.6,34.1,2.4,50.6-1.1l4.4-1.1c-0.2-1.4-0.4-3-0.6-4.8l-2.3-3.4l1.5-3.3
			c-0.2-1.6-0.4-3.3-0.6-5l-1.7-4.3l1-2v0c-0.2-1.8-0.4-3.4-0.6-4.9l-1-2.7l0.5-0.9c-0.2-1.8-0.3-3.1-0.4-3.5
			c-5.8-8-20.4-28.4-22-30.5c7.9,1,64.3,8.4,67.1,8.7c0-2.2,0.1-4.4-0.1-6.6c-1.2-8.9-6.8-15.9-13.8-21.1l-2.6,0.4l-0.7-2.7
			l-1.8-1.1c0,0-0.1,0-0.1,0l-4.1,0.7l-0.2-3.1c-1.5-0.8-3.1-1.5-4.7-2.2l-3.5,0.6v-2c-6.9-2.6-14-4.4-21.2-5.6
			c-12.6-2.2-25.6-2.5-38.3-0.9c-12.4,1.5-24.8,4.6-35.9,10.4c-7.3,3.8-14,8.8-18.4,15.7l0,1.7L32.2,94l-1.7,0.8
			c-0.9,2.7-0.7,5.3-0.8,9l1.4,2.3l-0.5,3.8L29.2,112.2z M37.8,101.8c0-0.1,0-0.1,0-0.2l17.2,8.1L41.7,90.5c3.4-4.6,8-8.1,12.9-10.8
			c5.3-3,11.1-5.3,16.9-7c12.2-3.6,25-5.2,37.7-4.8c9.2,0.2,18.6,1.5,27.5,3.8l-14.4,5l20.5-3.1c1.3,0.4,2.5,0.9,3.7,1.3l-10.2,3.9
			l14.8-2c0.1,0,2.4,1.1,2.4,1.1c0,0,0.1,0,0.1,0l-1.4,1.6h4.4c1.9,1.1,3.8,2.3,5.6,3.6c3.8,2.8,7.4,6.3,9.4,10.7
			c0.8,1.7,1.3,3.4,1.6,5.2c-7.7-1-68.1-8.5-72.5-9l26.3,39.7l0,0.5l-24.5,2.4l24.6,5.1l0,0.1l-30,3.1l26.3,7.5l-37.8,1.2l21.2,6.8
			l-1,0c-11.3,0.2-22.7-0.8-33.6-3.7c-11-2.8-23.2-7.7-30.3-17c-0.8-1-1.5-2-2.1-3.2l13.1,3.7L38,121.7l-0.1-2.3l0-0.1L55,124
			l-17.2-17.8V101.8z"/>
		<path class="logo-fill" d="M50.5,180.5c0.1,0,0.2-0.1,0.2-0.1c2.2-1,4.4-2.1,6.2-3.5c1.8-1.4,3.4-3,4.7-4.9c1.5-2.2,2.4-4.8,3.1-7.4
			c-1.7-0.5-3.4-1.1-5-1.7c-1.1,3.9-2.9,7.2-6.3,9.5c-1.9,1.3-3.9,2.3-6.2,2.9c-3.6,1-7.4,0.3-11.1-0.2c-4.4-0.7-8.9-1.1-13.3-0.5
			c1.1,2.2,2.3,4.4,3.5,6.5c4-0.3,7.9,0.3,11.8,0.7c2,0.2,4,0.3,6,0.2c2.1-0.1,4.1-0.7,6.2-1.3C50.4,180.5,50.5,180.5,50.5,180.5z"
			/>
		<path class="logo-fill" d="M28.3,156.3c0,0-0.3,0-0.4,0c0.1,0,0.1,0,0.2,0C28.1,156.3,28.2,156.3,28.3,156.3z"/>
		<path class="logo-fill" d="M35,161.4c3.8-1.2,7.7-2.7,10.5-5.7c-1.6-1-3.2-2.1-4.7-3.3c-3.6,2.8-8.1,3.8-12.5,3.8c0,0,0,0-0.2,0
			c-0.2,0-0.2,0-0.2,0c-4.8-0.3-9.1-2.7-13.4-4.5c0.7,2.7,1.4,5.3,2.3,7.8C22.6,161.9,28.8,163.2,35,161.4z"/>
		<path class="logo-fill" d="M225.2,166.6c-1.3-2.3-2.7-4.7-4.5-6.9c-0.9,2.2-1.9,4.2-3.2,6.2c2.2,3.7,3.9,7.7,6.4,11.2
			c1.2-2.3,2.4-4.6,3.4-7c-0.6-0.9-1.1-1.9-1.7-2.9C224.9,166,225,166.2,225.2,166.6z"/>
		<path class="logo-fill" d="M92.4,169.8c-1.8-0.2-3.6-0.4-5.4-0.6c-0.4,4.2-3.5,7.3-7.1,9.2c-2.5,1.1-5.3,1.3-8,1.9c-3,0.6-5.9,1.5-8.6,3
			c-5.6,3-10.3,8.3-13.4,13.8c-1.6,2.8-2.7,5.8-3.5,9c2.3,2.1,4.6,4.2,7,6.1c0.4-2.5,0.8-5.1,1.6-7.6c0.5-1.7,1.3-3.2,2.1-4.7
			c0.9-1.9,2.3-3.6,3.7-5.2c2.5-3,5.5-5.5,9.2-7c4.7-1.8,10-2,14.4-4.8C88.6,179.9,92.1,175.4,92.4,169.8z"/>
		<path class="logo-fill" d="M230.7,126.7c-3.1,0-6.4,0.7-9.3,2c0.3,0.6,0.5,1.2,0.8,1.7c0.5,1.1,0.2,2.8,0.2,4c4.3-2.3,9.6-2.4,14.2-1.1
			c0.2-2,0.3-4,0.3-6c-1.9-0.3-3.8-0.5-5.7-0.6C229.4,126.7,230,126.7,230.7,126.7z"/>
		<path class="logo-fill" d="M156,223.8c-3.4-5.5-5.9-12.3-4.7-18.8c1-5.8,4.4-11.2,3.1-17.2c-1-4.7-3.2-9.1-7.4-11.8
			c-3.7-2.3-10.4-3.5-9.8-9.1c-1.5,0.4-3,0.7-4.6,1c0.2,3.6,1.9,6.7,4.8,8.8c2.2,1.6,5,2.4,7.1,4.2c1.9,1.5,2.9,3.6,3.6,5.9
			c1.4,4.4-0.8,8.7-2.3,12.8c-1,2.9-1.7,5.8-1.8,8.8c-0.1,2.9,0.4,5.8,1,8.6c1.3,6,4.4,11.4,8.4,16c2.9-0.8,5.8-1.7,8.7-2.7
			C159.7,228.3,157.6,226.3,156,223.8z"/>
		<path class="logo-fill" d="M126.9,177.9c-1.5-1.5-3.8-3-4.5-5.1c-0.5-1-0.4-2.2-0.3-3.3c-1.6,0.2-3.1,0.3-4.7,0.4
			c-0.2,1.4,0,3.1,0.5,4.4c0.8,2.8,3,4.8,4.9,6.9c2,2.1,3.4,4.3,3.6,7.3c0.1,1.6,0,3.3-0.5,4.9c-0.7,2.4-2.3,4.4-3.9,6.2
			c-1.9,2.2-3.7,4.5-5.2,7.1c-2.2,4.1-3.3,8.7-3.4,13.3c-0.1,2.7-0.1,5.4,0.4,8c0.6,3,1.4,5.9,2.6,8.7c3.1,0.2,6.1,0.3,9.2,0.2
			c-2-3.3-3.4-6.6-4.3-10.3c-0.5-2.4-0.5-4.8-0.6-7.3c-0.1-4.9,1.6-9.4,4.5-13.4c3.2-4.5,7.1-8.9,7-14.7c0-2.1-0.1-4.2-0.8-6.3
			C130.6,182.2,128.9,179.9,126.9,177.9z"/>
		<path class="logo-fill" d="M182.4,190.6c-2.2,0.7-4.4,1.3-6.7,1.8c2.7,8.7,10.2,16.4,18.3,20.3c2.3-1.9,4.6-3.8,6.8-5.9
			c-2.7-0.9-5.2-1.9-7.4-3.4C188.9,200.2,184.5,195.9,182.4,190.6z"/>
		<path class="logo-fill" d="M30.4,141.5c-1-1.6-1.9-3.2-2.6-5c-4.9,2.3-11.1,2.4-16,0.5c0.3,2.2,0.6,4.4,1,6.6
			C18.6,145,25.1,144.3,30.4,141.5z"/>
		<path class="logo-fill" d="M107.3,170.4c-1.7,0-3.3,0-5,0c0.3,3,1.9,5.5,3,8.2c1.1,2.7,1.1,5.4,0.1,8.1c-0.5,1.3-1.1,2.4-1.9,3.6
			c-1.6,2.2-4.3,3.5-6.5,4.9c-5,3.1-9.2,7-11.8,12.3c-1.1,2.3-2.2,4.8-2.8,7.3c-1.2,4.5-1.7,9.1-1.1,13.8c2.8,1.2,5.7,2.2,8.7,3.2
			c-0.8-3.6-1.4-7-1.1-10.3c0.6-6.1,2.6-12.7,7-17.1c3.8-3.8,9.2-5.9,12.4-10.4c2.2-3.1,3.5-6.9,3.5-10.7c0-2.4-0.6-4.7-1.6-6.9
			C109.2,174.4,107.9,172.6,107.3,170.4z"/>
		<path class="logo-fill" d="M247.3,133.5c-0.3-3.1-1.2-6.1-1.3-9.2c-0.1-3.1,0.9-6.1,1.3-9.1c0.4-3.1,0-6-1.1-8.9c-1-2.7-2.5-5.4-2.9-8.3
			c-0.5-3-0.2-6-0.6-9c-0.4-3.1-1.6-5.8-3.2-8.4c-1.6-2.4-3.5-4.7-4.5-7.5c-1-2.8-1.3-5.7-2.4-8.5c-1-2.8-2.7-5-4.8-7.1
			c-2-2-4.4-3.9-5.9-6.4c-1.5-2.5-2.4-5.2-4-7.6c-1.6-2.5-3.7-4.4-6.2-6.1c-2.4-1.5-4.9-2.8-6.9-4.8c-1.9-2-3.4-4.4-5.3-6.5
			c-2-2.2-4.3-3.7-7-4.8c-2.6-1.1-5.5-1.7-7.9-3.2c-2.5-1.5-4.5-3.7-6.8-5.4c-2.4-1.8-5.1-2.9-8-3.4c-2.8-0.5-5.8-0.6-8.5-1.5
			c-2.8-1-5.2-2.7-7.9-3.9c-2.8-1.2-5.6-1.7-8.6-1.6C142,2.4,139,3,136.1,2.6c-3-0.5-5.8-1.7-8.8-2.2c-3.1-0.6-6.1-0.2-9.1,0.6
			c-2.8,0.8-5.6,1.8-8.5,1.8c-3,0-6.1-0.6-9.1-0.4c-2.9,0.2-5.6,1.2-8.2,2.6c-2.6,1.4-5.1,2.9-8,3.5c-2.9,0.6-5.9,0.7-8.7,1.5
			c-2.8,0.8-5.1,2.4-7.3,4.2c-2.2,1.9-4.3,3.9-7.1,5c-2.6,1.1-5.5,1.8-8,3.2c-2.5,1.3-4.5,3.3-6.3,5.5c-1.7,2.2-3.3,4.6-5.5,6.2
			c-2.3,1.7-4.9,3-7.2,4.7c-2.4,1.8-4,4.1-5.4,6.8c-1.3,2.5-2.3,5.3-4.1,7.4c-1.9,2.2-4.2,4-6.1,6.2c-2,2.3-3.2,4.9-4,7.8
			c-0.8,2.8-1.2,5.7-2.5,8.2c-1.4,2.6-3.4,4.9-4.8,7.5c-1.5,2.8-2.1,5.8-2.2,8.9c-0.1,2.9,0,5.8-0.9,8.6c-0.9,2.8-2.3,5.4-3.1,8.3
			c-1.6,6.2,1.6,12.1,0.6,18.3c-0.5,3.1-1.3,6.2-1.1,9.3c0.2,3,1.2,5.7,2.4,8.4c1.2,2.8,1.9,5.4,2.1,8.5c0.1,3.1,0,6.3,1,9.3
			c0.9,2.8,2.6,5.2,4.3,7.6c1.7,2.5,2.8,5,3.5,7.9c0.7,2.9,1.4,5.9,2.9,8.5c1.5,2.4,3.6,4.3,5.6,6.2c2.2,2.1,3.8,4.3,5.1,7
			c1.2,2.6,2.5,5.3,4.4,7.4c1.9,2.2,4.5,3.6,6.9,5.2c2.5,1.5,4.5,3.2,6.3,5.6c1.7,2.2,3.3,4.5,5.5,6.2c2.3,1.8,5,2.8,7.7,3.8
			c2.8,1,5.3,2.1,7.6,4.1c2.2,1.8,4.2,3.8,6.7,5.1c2.7,1.4,5.6,1.9,8.6,2.2c3,0.4,5.6,1,8.3,2.4c2.6,1.4,5.1,2.9,8,3.6
			c2.9,0.8,5.9,0.5,8.9,0.3c3-0.2,5.7-0.1,8.6,0.7c2.9,0.8,5.8,1.8,8.9,1.8c4.1,0,7.8-1.8,11.7-2.5c2.9-0.5,5.8,0,8.7,0.2
			c2.9,0.1,5.7-0.2,8.3-1.3c2.7-1.1,5.2-2.8,7.9-3.9c2.7-1.1,5.6-1.2,8.5-1.7c3-0.5,5.7-1.4,8.2-3.1c2.4-1.6,4.4-3.8,6.8-5.4
			c2.4-1.6,5.2-2.3,7.8-3.3c2.7-1,5.2-2.5,7.2-4.6c2-2,3.5-4.4,5.3-6.5c1.9-2.1,4.4-3.5,6.8-5c2.5-1.6,4.7-3.4,6.4-5.8
			c1.6-2.4,2.6-5.1,4-7.6c1.4-2.6,3.6-4.5,5.7-6.5c2.1-2,3.9-4.2,5-6.9c1.1-2.8,1.6-5.7,2.4-8.5c0.9-2.8,2.6-5.2,4.3-7.6
			c1.7-2.5,3-5.2,3.5-8.2c0.5-3,0.2-6,0.6-9.1c0.4-2.9,1.7-5.6,2.8-8.3C247,139.5,247.6,136.6,247.3,133.5z M240.6,129.2
			c0.5,2.9,1.3,5.9,0.5,8.8c-0.8,3-2.3,5.7-3.2,8.7c-0.9,3-0.8,6.1-1,9.1c-0.1,3-0.8,5.5-2.4,8.1c-1.6,2.5-3.5,4.8-4.6,7.6
			c-1.2,2.8-1.6,5.8-2.5,8.7c-1.8,5.7-7.5,8.4-10.5,13.4c-1.5,2.5-2.5,5.3-4,7.7c-1.6,2.5-4,3.9-6.4,5.4c-2.5,1.5-4.8,3.2-6.8,5.4
			c-1.9,2.2-3.4,4.7-5.6,6.6c-2.2,1.9-5.1,2.7-7.7,3.6c-2.9,1.1-5.4,2.4-7.8,4.4c-2.3,1.8-4.4,4.1-7.2,5.2c-2.8,1-5.8,1-8.7,1.6
			c-3.1,0.6-5.8,1.8-8.5,3.3c-2.7,1.4-5.2,2.7-8.3,2.7c-3.1,0-6.1-0.6-9.2-0.4s-6,1.3-8.9,2.1c-1.5,0.4-3,0.7-4.6,0.6
			c-1.6-0.1-3.1-0.5-4.7-1c-3-0.9-5.9-1.7-9-1.7c-0.4,0-0.8,0-1.1,0c-2.9,0.1-5.9,0.7-8.8,0.2c-3-0.5-5.6-2.4-8.2-3.7
			c-2.8-1.4-5.7-2.1-8.8-2.5c-2.8-0.4-5.7-0.6-8.1-2.2c-2.5-1.6-4.5-3.7-6.8-5.4c-2.5-1.8-5.3-2.8-8.2-3.8c-2.7-1-5.1-2.1-7.1-4.3
			c-1.9-2.2-3.5-4.7-5.6-6.7c-2.1-2.1-4.7-3.5-7.2-5c-2.5-1.6-4.2-3.4-5.6-6.1c-1.3-2.6-2.4-5.4-4.2-7.7c-1.8-2.3-4.1-4.2-6.1-6.3
			c-2-2.1-3-4.5-3.7-7.4c-0.7-3-1.4-5.9-2.9-8.6c-1.4-2.6-3.5-4.9-4.8-7.6c-1.3-2.6-1.3-5.5-1.4-8.4c-0.1-3.1-0.5-6.1-1.6-9
			c-1.1-2.8-2.6-5.6-2.8-8.6c-0.2-3,0.8-6,1.2-9c0.4-3.2,0-6.2-0.5-9.3c-0.6-3-1-5.8,0-8.8c1-2.9,2.5-5.7,3.2-8.7
			c0.7-3,0.5-6.1,0.7-9.1c0.2-3.1,1.3-5.5,3-8c1.7-2.5,3.4-4.9,4.4-7.7c1-2.8,1.4-5.8,2.4-8.7c1-2.7,3.1-4.7,5.2-6.6
			c2.1-2,4.1-4.1,5.5-6.7c1.4-2.5,2.3-5.3,4.1-7.6c1.7-2.3,4.4-3.6,6.7-5.1c2.5-1.6,4.7-3.4,6.6-5.7c1.8-2.2,3.3-4.8,5.6-6.4
			c2.3-1.7,5.3-2.4,8-3.4c2.8-1.1,5.2-2.7,7.6-4.7c2.1-1.8,4.3-3.9,7-4.7c2.8-0.9,5.9-0.9,8.8-1.5c3.1-0.6,5.7-2.1,8.5-3.6
			c2.7-1.4,5.1-2.4,8.1-2.3c3,0.1,6,0.6,9,0.3c3.1-0.3,6-1.4,8.9-2.1c3.1-0.8,5.8-0.4,8.9,0.5c2.9,0.9,5.7,1.7,8.8,1.7
			c3,0,6-0.5,8.9-0.4c3,0.2,5.5,1.8,8.1,3.2c2.8,1.5,5.5,2.5,8.7,3c2.8,0.4,5.9,0.5,8.5,1.8c2.7,1.3,4.8,3.6,7.1,5.4
			c2.4,1.9,5.1,3.1,8,4.1c2.7,1,5.4,1.9,7.4,4c2,2.1,3.6,4.6,5.5,6.7c3.9,4.2,10.1,5.7,13,10.9c1.4,2.6,2.4,5.3,4.1,7.8
			c1.6,2.4,3.9,4.3,6,6.4c2.1,2.1,3.4,4.2,4.2,7.1c0.8,2.9,1.3,6,2.7,8.7c1.3,2.7,3.3,5,4.8,7.5c1.5,2.6,1.8,5.3,1.9,8.3
			c0.1,3.1,0.2,6.1,1.3,9.1c1,2.9,2.6,5.6,3.1,8.6c0.5,3-0.4,6-0.9,8.9C239.9,123,240,126,240.6,129.2z"/>
	</g>
</g>
</svg>
