<?xml version="1.0" encoding="utf-8"?>
<!-- Generator: Adobe Illustrator 16.0.3, SVG Export Plug-In . SVG Version: 6.00 Build 0)  -->
<!DOCTYPE svg PUBLIC "-//W3C//DTD SVG 1.1//EN" "http://www.w3.org/Graphics/SVG/1.1/DTD/svg11.dtd">
<svg version="1.1" id="Layer_1" xmlns="http://www.w3.org/2000/svg" xmlns:xlink="http://www.w3.org/1999/xlink" x="0px" y="0px"
	 width="248px" height="248px" viewBox="0 0 248 248" style="enable-background:new 0 0 248 248;" xml:space="preserve">
<g>
	<path d="M215.0800781,150.8339844l2.7304688-2.4833984c-0.0205078-1.3574219-0.0507813-2.7138672-0.0830078-4.0703125
		l-1.6474609-3.6132813l1.5302734-1.0214844c-0.0585938-2.0605469-0.1142578-4.1201172-0.171875-6.1806641L216.3330078,131
		l1.0078125-1.2353516c-0.046875-1.9560547-0.0859375-3.9111328-0.1064453-5.8676758
		c-6.7558594-0.8061523-71.8652344-8.5756836-78.6347656-9.3837891l26.9736328,49.1518555l0.1494141,9.2070313
		l-18.2558594-21.6308594l-2.3203125,1.6367188l20.8134766,35.7138672c1.2744141-0.1650391,2.5683594-0.2294922,3.84375-0.3925781
		c11.5566406-1.109375,22.8271484-5.5332031,32.1083984-12.5048828c6.9814453-5.2441406,13.390625-12.3876953,15.3193359-20.9511719
		L215.0800781,150.8339844z M211.0996094,131.4570313L197.5,147l13.3710938-6.6855469
		c-0.0029297,0.1318359-0.0058594,0.2646484-0.0078125,0.3964844L198.5,154.5l12.2402344-5.1787109l0.0029297,0.4443359
		L195.5,165.1894531l10.8017578-3.8730469c-2.7089844,3.59375-6.1035156,6.6103516-9.7392578,9.2382813
		c-2.6796875,1.9169922-10.359375,6.2041016-16.0800781,8.0957031L184.75,173.75l-11.5,1.8398438l0.0166016-0.5830078L185.25,166.25
		l-11.8144531,2.7802734l0.0175781-0.6083984L185.25,158.1669922l-11.6650391,3.2363281v-0.0166016
		c-4.8945313-7.7402344-22.1464844-34.9902344-25.8730469-40.878418l63.484375,8.6245117
		C211.1640625,129.9082031,211.1269531,130.6816406,211.0996094,131.4570313z"/>
</g>
<g>
	<path d="M179.0898438,98.8847656c-1.2001953-8.9199219-6.8310547-15.8671875-13.8183594-21.0913086L162.625,78.1875
		l-0.6601563-2.6694336l-1.7578125-1.097168c-0.0253906-0.0151367-0.0507813-0.0302734-0.0771484-0.0454102L156.0625,75.0625
		l-0.2363281-3.0585938c-1.5292969-0.777832-3.0839844-1.5097656-4.6630859-2.1894531l-3.4511719,0.6166992v-2.0117188
		c-6.8554688-2.6152344-14.0488281-4.4204102-21.2099609-5.6479492c-12.6328125-2.1655273-25.5810547-2.484375-38.3046875-0.9321289
		c-12.3647461,1.5083008-24.8149414,4.6396484-35.9101563,10.4145508
		c-7.2587891,3.7783203-13.9799805,8.8305664-18.3701172,15.6948242L33.875,89.625l-1.703125,4.4375l-1.6894531,0.8125
		c-0.918457,2.6616211-0.7197266,5.309082-0.815918,9l1.3959961,2.25l-0.5205078,3.8334961l-1.3730469,2.2260742
		c0.0761719,2.9384766,0.1835938,6.3300781,0.2695313,10.3129883L31.0625,124.65625l-1.2456055,3.9726563
		c1.6367188,10.3554688,9.8969727,18.4951172,18.6533203,23.8671875c10.4931641,6.4375,22.640625,9.9404297,34.7314453,11.8134766
		c16.6469727,2.5791016,34.0727539,2.375,50.5649414-1.1142578l4.3701172-1.1279297
		c-0.1611328-1.3779297-0.3535156-3.0302734-0.5664063-4.8466797l-2.2998047-3.3515625l1.5205078-3.3164063
		c-0.1923828-1.6425781-0.3886719-3.3203125-0.5830078-4.9892578L134.5,141.3105469l0.9794922-2v-0.0029297
		c-0.2041016-1.7519531-0.3955078-3.4082031-0.5683594-4.9042969l-0.953125-2.7148438l0.5351563-0.9326172
		c-0.2070313-1.828125-0.3457031-3.0830078-0.3789063-3.4570313c-5.7822266-8.0185547-20.4482422-28.3671875-22.0009766-30.5214844
		c7.9018555,1.0268555,64.2900391,8.3535156,67.0517578,8.7119141
		C179.1826172,103.2875977,179.2792969,101.0791016,179.0898438,98.8847656z M100.8261719,89.9985352l26.328125,39.6791992
		l0.0078125,0.4667969L102.6665039,132.5l24.6323242,5.0908203l0.0019531,0.1142578l-29.9672852,3.1289063l26.3334961,7.5
		L85.8334961,149.5l21.1811523,6.8417969l-0.9785156,0.0185547c-11.2617188,0.1914063-22.6542969-0.8398438-33.5771484-3.6582031
		c-11.0112305-2.8417969-23.152832-7.7177734-30.2949219-17.0253906c-0.765625-0.9970703-1.4614258-2.0498047-2.0610352-3.15625
		L53.25,136.25l-15.2915039-14.5l-0.0922852-2.3422852l-0.0004883-0.1259766L55,124l-17.2460938-17.8334961v-4.340332
		c0.0004883-0.0683594,0.0004883-0.1386719,0.0014648-0.2055664L55,109.75L41.6708984,90.5136719
		c3.3564453-4.5878906,8.0395508-8.0551758,12.9472656-10.8344727c5.3320313-3.0200195,11.0825195-5.2797852,16.9472656-7.0273438
		c12.1826172-3.6289063,25.0136719-5.1591797,37.7089844-4.828125c9.237793,0.2412109,18.5556641,1.4584961,27.5283203,3.8452148
		l-14.3789063,4.9975586l20.5410156-3.1489258c1.2568359,0.421875,2.5107422,0.8535156,3.7480469,1.3261719L136.5,78.75
		l14.7919922-1.9990234c0.0908203,0.0415039,2.3974609,1.1391602,2.3974609,1.1391602
		c0.0302734,0.0151367,0.0605469,0.0307617,0.0917969,0.0458984L152.3417969,79.5h4.3964844
		c1.9277344,1.0952148,3.7919922,2.2983398,5.5654297,3.6293945c3.7587891,2.8208008,7.3740234,6.34375,9.3798828,10.6660156
		c0.7724609,1.6660156,1.3251953,3.3950195,1.6201172,5.2080078
		C165.5927734,98.0454102,105.2353516,90.5463867,100.8261719,89.9985352z"/>
</g>
<g>
	<path d="M50.5205078,180.5146484c0.8408203-0.3603516,1.675293-0.7490234,2.4985352-1.1367188
		c0.2006836-0.0976563,0.4213867-0.1953125,0.6040039-0.2939453l0.4785156-0.2998047l0.9555664-0.5976563l0.953125-0.5957031
		l0.1186523-0.0742188c-0.0942383,0.0625,0.2612305-0.1660156,0.2714844-0.1816406l0.2514648-0.1982422l0.5009766-0.3964844
		c0.6572266-0.546875,1.3530273-1.0175781,1.9360352-1.671875c0.5927734-0.6289063,1.2368164-1.1962891,1.7299805-1.9208984
		c0.5249023-0.6904297,1.0561523-1.3720703,1.4526367-2.1367188c1.2451172-2.1103516,1.9648438-4.3642578,2.4804688-6.4775391
		c-1.6845703-0.5351563-3.3540039-1.1162109-5.0058594-1.7431641c-0.5551758,2.0058594-1.2089844,3.8007813-2.2128906,5.3623047
		c-1.2739258,2.0498047-3.2045898,3.7314453-5.4741211,5.0253906l-0.9750977,0.5644531l-0.4887695,0.2832031
		c-0.1518555,0.0732422-0.2836914,0.1113281-0.4262695,0.1699219c-0.5600586,0.2138672-1.105957,0.4443359-1.6606445,0.6748047
		l-1.8520508,0.4853516c-0.6264648,0.1269531-1.2749023,0.1669922-1.9101563,0.265625
		c-2.5888672,0.2246094-5.3989258-0.1826172-8.4960938-0.6533203c-3.0854492-0.4716797-6.4907227-0.9150391-9.9990234-0.7607422
		c-1.112793,0.0410156-2.2314453,0.1582031-3.3486328,0.3095703c1.1040039,2.2050781,2.2768555,4.3681641,3.5175781,6.4873047
		c0.0664063-0.0048828,0.1318359-0.0166016,0.1982422-0.0214844c2.8203125-0.2236328,5.7011719,0.0283203,8.7866211,0.3935547
		c3.0683594,0.3505859,6.4472656,0.7773438,9.9707031,0.3613281c0.8745117-0.1503906,1.7539063-0.2539063,2.6108398-0.4599609
		C48.8334961,181.0224609,49.6782227,180.7685547,50.5205078,180.5146484z"/>
	<path d="M216.0517578,119.0654297c1.6914063-2.3813477,3.2880859-4.5922852,5.2431641-6.2871094
		c2.2822266-2.0581055,5.0917969-3.331543,8.2578125-3.9614258c0.6738281-0.0981445,1.8232422-0.3388672,2.4804688-0.362793
		c0.7451172-0.0957031,1.5634766-0.1044922,2.3662109-0.1279297c0.5117188,0.0048828,1.0185547,0.0371094,1.5244141,0.081543
		c-0.2792969-2.0244141-0.6123047-4.0322266-0.9970703-6.0209961c-0.1923828-0.0009766-0.3857422-0.0112305-0.5771484-0.0078125
		c-1.0283203,0.050293-2.0410156,0.0908203-3.1035156,0.2514648c-1.1630859,0.1289063-1.7910156,0.3027344-2.9042969,0.5073242
		c-3.9257813,0.8583984-7.8447266,2.7485352-10.7646484,5.5463867c-2.9667969,2.753418-4.8974609,6.0283203-6.7607422,8.7773438
		c-0.2080078,0.3095703-0.4160156,0.6098633-0.625,0.9047852
		C212.3847656,118.6279297,214.3574219,118.8632813,216.0517578,119.0654297z"/>
	<path d="M28.0498047,156.2871094c-0.7075195-0.0429688-1.4130859-0.1835938-2.1220703-0.2597656
		c-2.8359375-0.4990234-5.706543-1.7314453-8.8334961-3.0966797c-0.8549805-0.3740234-1.7387695-0.7490234-2.640625-1.1181641
		c0.6713867,2.6523438,1.4375,5.265625,2.2924805,7.8398438c2.5385742,0.9912109,5.2553711,1.9433594,8.203125,2.3847656
		c0.9501953,0.0908203,1.8930664,0.2324219,2.8413086,0.2626953c0.9516602-0.0253906,1.9008789-0.0498047,2.8476563-0.0751953
		c0.9716797-0.1357422,1.9453125-0.3027344,2.9072266-0.4707031c0.2363281-0.0439453,0.4902344-0.0830078,0.7104492-0.1337891
		l0.5893555-0.1767578l1.1762695-0.3544922l1.1728516-0.3525391l0.1464844-0.0439453
		c-0.1025391,0.0332031,0.3022461-0.09375,0.3198242-0.1074219l0.3178711-0.1347656l0.6337891-0.2714844
		c0.8378906-0.3828125,1.6972656-0.6738281,2.4868164-1.1884766c0.793457-0.4873047,1.6254883-0.8925781,2.3413086-1.5048828
		c0.7138672-0.5488281,1.4277344-1.0908203,2.0410156-1.7412109c-1.5952148-1.0078125-3.171875-2.1103516-4.7021484-3.2949219
		c-1.8022461,1.4082031-3.9702148,2.4277344-6.3378906,3.0517578l-1.1860352,0.3203125l-0.59375,0.1611328
		c-0.1811523,0.0332031-0.3364258,0.0390625-0.5058594,0.0605469c-0.6591797,0.0839844-1.3208008,0.1679688-1.9838867,0.2529297
		C29.4663086,156.2929688,28.7587891,156.2900391,28.0498047,156.2871094z"/>
	<path d="M225.5273438,167.1982422c-1.3652344-2.4394531-2.8330078-5.1191406-4.8740234-7.546875
		c-0.8574219,2.1601563-1.9472656,4.2294922-3.2275391,6.1982422c0.8232422,1.3535156,1.5996094,2.828125,2.4052734,4.4052734
		c1.125,2.203125,2.3955078,4.5537109,3.9501953,6.8095703c1.2167969-2.28125,2.3583984-4.6083984,3.4189453-6.9794922
		C226.6357422,169.1533203,226.0810547,168.1972656,225.5273438,167.1982422z"/>
	<path d="M84.3056641,183.0292969l1.6694336-1.2148438c0.5332031-0.4853516,1.0546875-0.9921875,1.5644531-1.4970703
		c0.1230469-0.125,0.2631836-0.2578125,0.3696289-0.3759766l0.2626953-0.3291016l0.5234375-0.65625
		c1.644043-2.0214844,2.9511719-4.4658203,3.4560547-7.1367188c0.1318359-0.6621094,0.2104492-1.3203125,0.25-1.9658203
		c-1.8139648-0.1640625-3.6220703-0.3652344-5.4248047-0.5927734c-0.0498047,0.4814453-0.1220703,0.9501953-0.2373047,1.4023438
		c-0.3828125,1.6181641-1.2817383,3.1552734-2.5117188,4.5361328l-0.5532227,0.6318359l-0.2773438,0.3154297
		c-0.0864258,0.0849609-0.1616211,0.1328125-0.2421875,0.2011719c-0.3178711,0.2548828-0.6181641,0.5185547-0.9233398,0.7880859
		l-1.1152344,0.7294922c-0.3857422,0.2226563-0.8076172,0.3916016-1.2036133,0.5986328
		c-1.6635742,0.7255859-3.6708984,1.1005859-5.9741211,1.5078125c-2.2915039,0.4052734-4.8676758,0.9179688-7.3857422,1.8994141
		c-2.5166016,0.9609375-4.9682617,2.34375-7.0483398,4.0546875c-1.1074219,0.8066406-2.0302734,1.7539063-3.0029297,2.6767578
		l-0.3623047,0.3476563l-0.0908203,0.0869141c-0.0795898,0.0869141,0.050293-0.0712891-0.2011719,0.2167969l-0.1484375,0.1699219
		l-0.59375,0.6806641l-1.1889648,1.3652344l-0.5957031,0.6835938c-0.1987305,0.2285156-0.4086914,0.5517578-0.6118164,0.8242188
		l-1.2211914,1.71875L50.8818359,195.5625c-0.1879883,0.2929688-0.3413086,0.5947266-0.5131836,0.8916016l-0.9995117,1.7988281
		c-0.3574219,0.5898438-0.5976563,1.2373047-0.875,1.8681641l-0.8056641,1.9082031l-0.6245117,1.9482422
		c-0.2128906,0.6523438-0.418457,1.3056641-0.5556641,1.9492188l-0.0605469,0.2519531
		c2.2597656,2.1328125,4.6083984,4.171875,7.0380859,6.1152344c0.5654297-3.9296875,1.2246094-7.4931641,2.7866211-10.6474609
		l0.7231445-1.4228516c0.1225586-0.234375,0.2319336-0.4833984,0.3637695-0.7060547l0.4199219-0.6396484l0.8261719-1.2871094
		c0.1484375-0.2197266,0.2451172-0.4238281,0.4345703-0.6591797l0.5693359-0.7050781l1.137207-1.4082031l0.5673828-0.703125
		l0.0996094-0.1240234l0.0664063-0.0683594l0.2773438-0.2880859c0.7412109-0.7617188,1.449707-1.5800781,2.2587891-2.2119141
		c3.1225586-2.8320313,6.7133789-4.1650391,11.2138672-5.1171875c2.2368164-0.5126953,4.7885742-1.0537109,7.2724609-2.265625
		C83.1083984,183.7060547,83.7275391,183.4013672,84.3056641,183.0292969z"/>
	<path d="M231.2509766,126.7333984c-3.328125-0.0390625-6.8046875,0.6240234-9.8769531,2.0244141l0.9013672,2.0136719
		c0.0361328,1.2314453,0.0673828,2.4589844,0.1015625,3.6875c2.6474609-1.4287109,5.6123047-2.0166016,8.7753906-1.9189453
		c0.6787109,0.0556641,1.8535156,0.0800781,2.4990234,0.2050781c0.7470703,0.0742188,1.5458984,0.25,2.3339844,0.4082031
		c0.2119141,0.0517578,0.4199219,0.1142578,0.6289063,0.171875c0.1630859-1.9970703,0.2763672-4.0087891,0.3349609-6.0341797
		c-0.9023438-0.1640625-1.7978516-0.3232422-2.7539063-0.3984375
		C233.0332031,126.7578125,232.3828125,126.7851563,231.2509766,126.7333984z"/>
	<path d="M156.0234375,223.8212891l-0.8388672-1.3574219c-0.1367188-0.2265625-0.2919922-0.4501953-0.4140625-0.6787109
		l-0.328125-0.6904297l-0.6699219-1.375c-0.1113281-0.2412109-0.234375-0.4296875-0.3369141-0.7138672l-0.3066406-0.8525391
		l-0.6123047-1.7041016l-0.3046875-0.8496094l-0.0546875-0.1503906l-0.0244141-0.0927734l-0.1015625-0.3857422
		c-0.265625-1.0292969-0.5966797-2.0595703-0.7148438-3.0791016c-0.796875-4.140625-0.0693359-7.9003906,1.4560547-12.2402344
		c0.7255859-2.1767578,1.5898438-4.6386719,1.8457031-7.390625c0.0292969-0.6904297,0.0917969-1.3779297,0.0742188-2.0654297
		c-0.0566406-0.6875-0.1132813-1.3730469-0.1699219-2.0576172c-0.1376953-0.7070313-0.2998047-1.4169922-0.4658203-2.1142578
		c-0.0429688-0.1699219-0.0839844-0.359375-0.1289063-0.5117188l-0.1445313-0.3955078l-0.2880859-0.7880859
		c-0.8720703-2.4550781-2.28125-4.8427734-4.2998047-6.6621094c-1.9912109-1.8291016-4.3564453-2.8935547-6.2607422-3.71875
		c-0.9892578-0.4257813-1.8154297-0.8242188-2.578125-1.2490234c-0.6894531-0.4511719-1.3310547-0.875-1.7529297-1.4423828
		c-0.2783203-0.2714844-0.3818359-0.5273438-0.5605469-0.7675781c-0.0429688-0.0673828-0.0888672-0.1064453-0.1367188-0.1953125
		l-0.1416016-0.3564453l-0.2841797-0.7109375l-0.0703125-0.1757813l-0.0615234-0.2607422l-0.1396484-0.5322266
		c-0.0019531-0.34375-0.1142578-0.6933594-0.0595703-1.03125c0.0009766-0.1162109,0.0136719-0.2333984,0.0253906-0.3505859
		l-1.8369141,0.4853516c-0.9140625,0.1992188-1.8320313,0.3828125-2.7509766,0.5625
		c0.0136719,0.3183594,0.0410156,0.6376953,0.0498047,0.9570313l0.1748047,0.9521484l0.0957031,0.4775391
		c0.0332031,0.1123047-0.0400391-0.0830078,0.0800781,0.28125l0.03125,0.0908203l0.0605469,0.1806641l0.2460938,0.7246094
		l0.1230469,0.3642578c0.0595703,0.1416016,0.1523438,0.3203125,0.2294922,0.4785156
		c0.3271484,0.6523438,0.6767578,1.3291016,1.1025391,1.8261719c0.7880859,1.1240234,1.8583984,1.9589844,2.8886719,2.6894531
		c1.0332031,0.6630859,2.0917969,1.2255859,3.0341797,1.6933594c1.9433594,0.9570313,3.5107422,1.8427734,4.6904297,3.0488281
		c1.1835938,1.1689453,2.0292969,2.7353516,2.5693359,4.5039063l0.2509766,0.8007813l0.1269531,0.4013672
		c0.0263672,0.1181641,0.0283203,0.2070313,0.0449219,0.3115234c0.0517578,0.4042969,0.1220703,0.7978516,0.1933594,1.1982422
		l0.0439453,1.3320313c-0.0107422,0.4453125-0.0859375,0.8935547-0.1142578,1.3398438
		c-0.2460938,1.7978516-0.96875,3.7080078-1.8183594,5.8867188c-0.8447266,2.1679688-1.7451172,4.6357422-2.2167969,7.296875
		c-0.4873047,2.6494141-0.5791016,5.4628906-0.1992188,8.1289063c0.1132813,1.3662109,0.4433594,2.6464844,0.7255859,3.9570313
		l0.1083984,0.4902344l0.0273438,0.1230469c0.0332031,0.1123047-0.0341797-0.0800781,0.0810547,0.2841797l0.0673828,0.2148438
		l0.2734375,0.8613281l0.5478516,1.7255859l0.2744141,0.8642578c0.0917969,0.2890625,0.2587891,0.6357422,0.3857422,0.9501953
		l0.8330078,1.9375l0.4257813,0.9677734c0.1533203,0.3125,0.3300781,0.6005859,0.4951172,0.9013672l1.0175781,1.7890625
		c0.3173828,0.6123047,0.7460938,1.1533203,1.140625,1.71875l1.2119141,1.6796875l1.3388672,1.546875
		c0.0644531,0.0751953,0.1308594,0.1474609,0.1953125,0.2226563c2.9394531-0.7910156,5.8320313-1.6953125,8.671875-2.7119141
		C159.6884766,228.3427734,157.5761719,226.2724609,156.0234375,223.8212891z"/>
	<path d="M121.3310547,226.6337891c-0.0546875-0.2587891-0.1289063-0.5205078-0.1694336-0.7763672l-0.0830078-0.7607422
		l-0.1835938-1.5185547c-0.0253906-0.2636719-0.0805664-0.4824219-0.0849609-0.7841797l-0.0102539-0.9072266l-0.0205078-1.8095703
		l-0.0102539-0.9033203l-0.0019531-0.1601563l0.0073242-0.09375l0.0302734-0.3984375
		c0.0864258-1.0595703,0.1108398-2.1416016,0.3325195-3.1435547c0.6030273-4.1728516,2.5219727-7.4882813,5.3842773-11.0888672
		c1.3974609-1.8203125,3.0195313-3.8623047,4.1630859-6.3789063c0.2548828-0.6435547,0.5380859-1.2724609,0.7470703-1.9277344
		c0.1708984-0.6679688,0.3417969-1.3339844,0.5126953-1.9990234c0.1015625-0.7138672,0.1806641-1.4375,0.2519531-2.1513672
		c0.015625-0.1748047,0.0390625-0.3662109,0.0458984-0.5253906l-0.0078125-0.4208984l-0.0136719-0.8388672
		c-0.0205078-2.6054688-0.5693359-5.3232422-1.8808594-7.703125c-1.2832031-2.3798828-3.1699219-4.1601563-4.6982422-5.5634766
		c-0.7958984-0.7255859-1.4453125-1.3730469-2.0273438-2.0244141c-0.5039063-0.6513672-0.9711914-1.2626953-1.184082-1.9365234
		c-0.1738281-0.3476563-0.1879883-0.6230469-0.277832-0.9091797c-0.0195313-0.0771484-0.0493164-0.1289063-0.0649414-0.2294922
		l-0.0175781-0.3828125l-0.0356445-0.7646484l-0.0087891-0.1904297v-0.0009766l0.0268555-0.2646484l0.0410156-0.53125
		c-1.5712891,0.1796875-3.1479492,0.3232422-4.7265625,0.4492188l-0.0087891,0.0644531
		c-0.0053711,0.1171875-0.0107422-0.0908203-0.0161133,0.2929688l-0.0009766,0.0947266l-0.0009766,0.1914063l-0.0058594,0.7646484
		l-0.0024414,0.3837891c0.0092773,0.1542969,0.0390625,0.3535156,0.0605469,0.5283203
		c0.0952148,0.7236328,0.2036133,1.4775391,0.4428711,2.0869141c0.3769531,1.3203125,1.1147461,2.4589844,1.8486328,3.4863281
		c0.7592773,0.9648438,1.5756836,1.84375,2.3129883,2.59375c1.5219727,1.5400391,2.7133789,2.8916016,3.434082,4.4169922
		c0.7353516,1.4921875,1.0214844,3.2490234,0.9521484,5.0966797l-0.0234375,0.8398438l-0.0126953,0.4199219
		c-0.0126953,0.1191406-0.0400391,0.2050781-0.0595703,0.3085938c-0.0820313,0.3994141-0.1455078,0.7939453-0.2089844,1.1962891
		l-0.3945313,1.2724609c-0.15625,0.4179688-0.3740234,0.8164063-0.546875,1.2285156
		c-0.8212891,1.6181641-2.1298828,3.1865234-3.6455078,4.9677734c-1.5078125,1.7714844-3.1669922,3.8085938-4.4833984,6.1689453
		c-1.328125,2.34375-2.3364258,4.9707031-2.8505859,7.6142578c-0.3398438,1.328125-0.4472656,2.6464844-0.6098633,3.9765625
		l-0.0576172,0.4990234l-0.0141602,0.125c-0.0063477,0.1181641-0.0068359-0.0869141-0.0170898,0.2958984l-0.0068359,0.2255859
		l-0.0234375,0.9023438l-0.0473633,1.8095703l-0.0234375,0.9072266c-0.0078125,0.3027344,0.0361328,0.6845703,0.0532227,1.0244141
		l0.1533203,2.1025391l0.0854492,1.0546875c0.0415039,0.3447266,0.1152344,0.6748047,0.1723633,1.0136719l0.3754883,2.0234375
		c0.0996094,0.6816406,0.3271484,1.3339844,0.5151367,1.9970703l0.5952148,1.984375l0.7592773,1.8994141
		c0.1176758,0.2988281,0.2373047,0.5957031,0.3618164,0.8876953C118.9321289,236.9072266,121.4550781,237,124,237
		c0.5332031,0,1.0634766-0.0126953,1.5947266-0.0205078c-1.75-2.9482422-3.2045898-5.7666016-3.9150391-8.7890625
		L121.3310547,226.6337891z"/>
	<path d="M193.4628906,203.4033203l-1.3125-0.9072266c-0.2148438-0.1533203-0.4472656-0.2949219-0.6503906-0.4560547
		l-0.5771484-0.5019531l-1.1650391-0.9921875c-0.1972656-0.1757813-0.3867188-0.2998047-0.59375-0.5185547l-0.6230469-0.6591797
		l-1.2421875-1.3164063l-0.6201172-0.65625l-0.1123047-0.1191406l-0.0566406-0.0722656l-0.2480469-0.3125
		c-0.6552734-0.8369141-1.3710938-1.6494141-1.8876953-2.5361328c-0.8310547-1.2099609-1.4648438-2.4541016-1.9648438-3.7519531
		c-2.1923828,0.6943359-4.4169922,1.2792969-6.6630859,1.7646484c0.6220703,2.0019531,1.484375,3.9570313,2.5732422,5.7197266
		c0.6513672,1.2060547,1.4658203,2.2480469,2.2490234,3.3359375l0.2958984,0.4052734l0.0742188,0.1015625
		c0.0751953,0.0908203-0.0634766-0.0595703,0.1875,0.2285156l0.1484375,0.1699219l0.5957031,0.6796875l1.1923828,1.3623047
		l0.5976563,0.6816406c0.1992188,0.2275391,0.4912109,0.4785156,0.7333984,0.7167969l1.5390625,1.4414063l0.7783203,0.7167969
		c0.2646484,0.2255859,0.5419922,0.4179688,0.8144531,0.6279297l1.6474609,1.2324219
		c0.5361328,0.4335938,1.1455078,0.7587891,1.7333984,1.1181641l1.7832031,1.0546875l1.4052734,0.6708984
		c2.3496094-1.8603516,4.6201172-3.8144531,6.8115234-5.8525391
		C198.1679688,205.9042969,195.6669922,204.8935547,193.4628906,203.4033203z"/>
	<path d="M12.7089844,143.6630859c1.3066406,0.2929688,2.6293945,0.4921875,3.9428711,0.5751953
		c1.0292969,0.0322266,2.0419922,0.0732422,3.1142578-0.0009766c1.1694336-0.0351563,1.809082-0.1582031,2.9355469-0.2724609
		c2.6459961-0.359375,5.3203125-1.1826172,7.7407227-2.4384766c-1.0249023-1.5771484-1.9072266-3.2353516-2.6416016-4.9609375
		c-1.7915039,0.8603516-3.7543945,1.3964844-5.8500977,1.640625c-0.6796875,0.0439453-1.8447266,0.1914063-2.5019531,0.1621094
		c-0.7504883,0.0361328-1.565918-0.0205078-2.3681641-0.0625c-1.5942383-0.1445313-3.1435547-0.4775391-4.6484375-1.0078125
		c-0.2280273-0.0791016-0.453125-0.1728516-0.6791992-0.2617188
		C12.0087891,139.2646484,12.324707,141.4755859,12.7089844,143.6630859z"/>
	<path d="M88.8081055,221.4658203l0.1635742-1.5869141c0.0302734-0.2626953,0.0429688-0.5351563,0.0859375-0.7900391
		l0.1625977-0.7470703l0.3085938-1.4990234c0.059082-0.2578125,0.0766602-0.4833984,0.168457-0.7705078l0.277832-0.8632813
		l0.5556641-1.7226563l0.2768555-0.859375l0.0498047-0.1552734l0.0361328-0.0849609l0.1552734-0.3681641
		c0.418457-0.9765625,0.7851563-1.9951172,1.3134766-2.875c1.8969727-3.7646484,4.769043-6.2988281,8.6269531-8.8037109
		c1.9033203-1.2822266,4.090332-2.7041016,5.9736328-4.7265625c0.4453125-0.5292969,0.9140625-1.0361328,1.3198242-1.5908203
		l1.121582-1.7333984c0.3232422-0.6445313,0.6279297-1.3046875,0.9223633-1.9589844
		c0.0698242-0.1611328,0.152832-0.3349609,0.2099609-0.484375l0.1269531-0.4013672l0.253418-0.7998047
		c0.8076172-2.4765625,1.1499023-5.2285156,0.6621094-7.9013672c-0.4609375-2.6650391-1.6835938-4.9511719-2.6875-6.7675781
		c-0.5244141-0.9414063-0.9345703-1.7617188-1.2792969-2.5634766c-0.1152344-0.3310547-0.222168-0.6503906-0.3110352-0.9658203
		c-1.6708984,0.0166016-3.3417969,0.0117188-5.0117188-0.0283203c0.0986328,0.9472656,0.3383789,1.859375,0.6005859,2.7158203
		c0.4135742,1.15625,0.9086914,2.2490234,1.3696289,3.1943359c0.9541016,1.9443359,1.6542969,3.6035156,1.8530273,5.2792969
		c0.2236328,1.6474609-0.0629883,3.4052734-0.715332,5.1357422l-0.2895508,0.7880859l-0.1450195,0.3945313
		c-0.0507813,0.1083984-0.1035156,0.1816406-0.1542969,0.2744141c-0.2050781,0.3515625-0.390625,0.7050781-0.5786133,1.0673828
		l-0.7788086,1.0810547c-0.2797852,0.3466797-0.612793,0.6552734-0.9082031,0.9912109
		c-1.2919922,1.2734375-3.0307617,2.3447266-5.0341797,3.5527344c-1.9926758,1.2011719-4.2128906,2.6054688-6.2104492,4.4248047
		c-2.003418,1.8007813-3.7944336,3.9726563-5.1210938,6.3164063c-0.7441406,1.1503906-1.2646484,2.3662109-1.8413086,3.5761719
		l-0.2133789,0.4550781l-0.0532227,0.1142578c-0.0429688,0.109375,0.0214844-0.0849609-0.1098633,0.2744141l-0.0776367,0.2119141
		l-0.309082,0.8486328l-0.6196289,1.7011719l-0.3105469,0.8515625c-0.1030273,0.2851563-0.1831055,0.6611328-0.2744141,0.9892578
		l-0.5224609,2.0419922l-0.2539063,1.0273438c-0.0698242,0.3398438-0.1049805,0.6767578-0.1582031,1.015625l-0.2871094,2.0380859
		c-0.121582,0.6787109-0.1132813,1.3691406-0.1450195,2.0576172l-0.0664063,2.0703125l0.1166992,2.0429688
		c0.0292969,0.5576172,0.0712891,1.1103516,0.1386719,1.6494141c2.8427734,1.1640625,5.7416992,2.2197266,8.6943359,3.1533203
		C89.0766602,228.1328125,88.5019531,224.7744141,88.8081055,221.4658203z"/>
	<path d="M183.9101563,114.8056641l0.0322266,0.4277344c0.5039063,0.0600586,1.0058594,0.1201172,1.5068359,0.1796875
		c-0.4179688-0.1831055-0.8125-0.4008789-1.2568359-0.5332031L183.9101563,114.8056641z"/>
</g>
<g>
	<path d="M123.9990234,248c-2.7954102,0-5.3515625-0.7597656-7.8232422-1.4941406
		c-1.7382813-0.5166016-3.3793945-1.0039063-4.9291992-1.1650391c-1.4501953-0.1503906-3.2875977-0.03125-5.1787109,0.1220703
		c-1.3100586,0.1054688-2.6640625,0.2148438-4.0356445,0.2148438c-1.4145508,0-2.6630859-0.1191406-3.8168945-0.3623047
		c-2.7280273-0.5771484-5.0698242-1.8515625-7.3344727-3.0839844c-1.5947266-0.8681641-3.1015625-1.6884766-4.5913086-2.171875
		c-1.5224609-0.4951172-3.2426758-0.7197266-5.0639648-0.9580078c-2.5390625-0.3320313-5.1645508-0.6757813-7.6743164-1.7949219
		c-2.534668-1.1298828-4.5537109-2.8623047-6.5063477-4.5361328c-1.3833008-1.1875-2.6899414-2.3076172-4.0546875-3.0976563
		C61.6108398,228.875,59.9785156,228.296875,58.25,227.6855469c-2.4160156-0.8554688-4.9140625-1.7402344-7.1411133-3.3603516
		c-2.2348633-1.6269531-3.8466797-3.7353516-5.4052734-5.7744141c-1.1108398-1.453125-2.1601563-2.8251953-3.3378906-3.8867188
		c-1.1796875-1.0625-2.6552734-1.9648438-4.2172852-2.9189453c-2.1884766-1.3378906-4.4516602-2.7216797-6.2993164-4.7724609
		c-1.8452148-2.0478516-2.9853516-4.4404297-4.0874023-6.7548828c-0.7880859-1.6542969-1.5322266-3.2167969-2.46875-4.5029297
		c-0.9301758-1.2792969-2.184082-2.4638672-3.5117188-3.7177734c-1.8671875-1.7636719-3.7983398-3.5878906-5.1850586-5.9853516
		c-1.3779297-2.3808594-1.9960938-4.9570313-2.59375-7.4492188c-0.4277344-1.7841797-0.8320313-3.46875-1.4824219-4.9277344
		c-0.640625-1.4355469-1.6162109-2.8505859-2.6494141-4.3486328c-1.4619141-2.1201172-2.9736328-4.3125-3.8330078-6.9580078
		c-0.8466797-2.6083984-0.9121094-5.2529297-0.9750977-7.8105469c-0.0454102-1.8388672-0.0883789-3.5761719-0.4208984-5.1474609
		c-0.3232422-1.5283203-0.9794922-3.1113281-1.6743164-4.7871094c-0.9882813-2.3818359-2.0097656-4.8457031-2.2983398-7.6230469
		c-0.28125-2.7080078,0.2021484-5.296875,0.6699219-7.7998047C1.6787109,127.3408203,1.9995117,125.6220703,1.9995117,124
		c0-1.621582-0.3208008-3.340332-0.6606445-5.159668c-0.4677734-2.503418-0.9511719-5.0922852-0.6699219-7.800293
		c0.2885742-2.777832,1.3100586-5.2412109,2.2983398-7.6240234c0.6948242-1.675293,1.3510742-3.2583008,1.6743164-4.7866211
		c0.3325195-1.5708008,0.3754883-3.3076172,0.4208984-5.1464844c0.0629883-2.5576172,0.128418-5.2021484,0.9750977-7.8105469
		c0.8588867-2.6455078,2.3710938-4.8374023,3.8334961-6.9580078c1.0327148-1.4975586,2.0087891-2.9125977,2.6489258-4.3476563
		c0.6499023-1.4580078,1.0537109-3.1430664,1.4819336-4.9272461c0.5976563-2.4916992,1.215332-5.0683594,2.59375-7.4501953
		c1.3867188-2.3969727,3.3178711-4.2211914,5.1850586-5.9853516c1.3271484-1.2543945,2.5810547-2.4389648,3.5112305-3.7172852
		C26.2285156,51,26.9726563,49.4375,27.7607422,47.7827148c1.1025391-2.3139648,2.2421875-4.7070313,4.0874023-6.7548828
		c1.8476563-2.0507813,4.1103516-3.4335938,6.2983398-4.7709961c1.5625-0.9550781,3.0380859-1.8569336,4.2177734-2.9204102
		c1.1782227-1.0610352,2.2275391-2.4335938,3.3383789-3.8867188c1.5585938-2.0385742,3.1704102-4.1469727,5.4047852-5.7734375
		c2.2275391-1.6206055,4.7255859-2.5048828,7.1411133-3.3598633c1.7285156-0.6118164,3.3608398-1.1899414,4.7407227-1.9882813
		c1.3652344-0.7895508,2.6723633-1.9111328,4.0561523-3.0976563c1.9521484-1.6748047,3.9707031-3.40625,6.5053711-4.5361328
		c2.5092773-1.1191406,5.1352539-1.4628906,7.6743164-1.7954102c1.8212891-0.2387695,3.5415039-0.4638672,5.0639648-0.9584961
		c1.4907227-0.4838867,2.9975586-1.3037109,4.5932617-2.1723633c2.2641602-1.2319336,4.605957-2.5063477,7.3334961-3.0830078
		c1.1538086-0.2441406,2.4033203-0.362793,3.8183594-0.362793c1.3710938,0,2.7246094,0.1088867,4.0336914,0.2148438
		c1.8911133,0.1523438,3.7280273,0.2724609,5.1791992,0.121582c1.5498047-0.1611328,3.1918945-0.6489258,4.9296875-1.1650391
		C118.6479492,0.7592773,121.2036133,0,123.9990234,0c2.7958984,0,5.3515625,0.7592773,7.8232422,1.4936523
		c1.7382813,0.5161133,3.3798828,1.0039063,4.9296875,1.1650391c1.4521484,0.1518555,3.2880859,0.0307617,5.1796875-0.121582
		c1.3085938-0.105957,2.6630859-0.2148438,4.0332031-0.2148438c1.4160156,0,2.6650391,0.1186523,3.8193359,0.362793
		c2.7275391,0.5766602,5.0683594,1.8510742,7.3330078,3.0830078c1.5947266,0.8681641,3.1025391,1.6884766,4.5917969,2.171875
		c1.5234375,0.4946289,3.2441406,0.7197266,5.0644531,0.9584961c2.5400391,0.3325195,5.1650391,0.6762695,7.6748047,1.7954102
		c2.5341797,1.1298828,4.5517578,2.8608398,6.5039063,4.5351563c1.3837891,1.1870117,2.6914063,2.3085938,4.0566406,3.0986328
		c1.3798828,0.7978516,3.0117188,1.3754883,4.7402344,1.9873047c2.4160156,0.8549805,4.9150391,1.7392578,7.1425781,3.3603516
		c2.234375,1.6264648,3.8457031,3.7348633,5.4052734,5.7734375c1.1103516,1.453125,2.1601563,2.8256836,3.3369141,3.8867188
		c1.1806641,1.0629883,2.6552734,1.9648438,4.2177734,2.9194336c2.1884766,1.3374023,4.4501953,2.7207031,6.2978516,4.7709961
		c1.8457031,2.0483398,2.9853516,4.440918,4.0878906,6.7548828c0.7880859,1.6542969,1.5332031,3.2172852,2.4697266,4.5039063
		c0.9296875,1.2788086,2.1835938,2.4633789,3.5107422,3.7172852c1.8671875,1.7646484,3.7978516,3.5888672,5.1845703,5.9863281
		c1.3789063,2.3818359,1.9970703,4.9584961,2.5947266,7.4506836c0.4277344,1.7836914,0.8320313,3.4682617,1.4824219,4.9262695
		c0.6396484,1.4355469,1.6162109,2.8505859,2.6494141,4.3486328c1.4619141,2.1201172,2.9736328,4.3125,3.8330078,6.9580078
		c0.8466797,2.6083984,0.9121094,5.2529297,0.9755859,7.8105469c0.0449219,1.8388672,0.0878906,3.5761719,0.4208984,5.1479492
		c0.3222656,1.5283203,0.9794922,3.1108398,1.6738281,4.7866211c0.9882813,2.3823242,2.0097656,4.8457031,2.2988281,7.6240234
		c0.28125,2.7075195-0.2021484,5.2963867-0.6699219,7.800293C246.3212891,120.6606445,246,122.378418,246,124
		c0,1.6220703,0.3212891,3.3398438,0.6611328,5.1591797c0.4677734,2.5039063,0.9511719,5.0927734,0.6699219,7.8017578
		c-0.2890625,2.7773438-1.3105469,5.2402344-2.2988281,7.6230469c-0.6943359,1.6757813-1.3515625,3.2587891-1.6738281,4.7861328
		c-0.3330078,1.5712891-0.3759766,3.3085938-0.4208984,5.1464844c-0.0634766,2.5585938-0.1289063,5.203125-0.9755859,7.8115234
		c-0.8583984,2.6445313-2.3701172,4.8369141-3.8330078,6.9570313c-1.0332031,1.4980469-2.0087891,2.9130859-2.6484375,4.3486328
		c-0.6503906,1.4580078-1.0546875,3.1425781-1.4824219,4.9267578c-0.5976563,2.4921875-1.2158203,5.0683594-2.5947266,7.4511719
		c-1.3867188,2.3964844-3.3173828,4.2207031-5.1835938,5.984375c-1.328125,1.2539063-2.5810547,2.4384766-3.5117188,3.7167969
		c-0.9365234,1.2871094-1.6816406,2.8505859-2.4697266,4.5048828c-1.1015625,2.3134766-2.2412109,4.7060547-4.0869141,6.7539063
		c-1.8476563,2.0507813-4.1103516,3.4345703-6.2988281,4.7724609c-1.5625,0.9550781-3.0371094,1.8574219-4.2177734,2.9199219
		c-1.1767578,1.0605469-2.2255859,2.4326172-3.3369141,3.8857422c-1.5595703,2.0390625-3.171875,4.1474609-5.4072266,5.7744141
		c-2.2265625,1.6201172-4.7236328,2.5048828-7.1386719,3.359375c-1.7285156,0.6123047-3.3613281,1.1904297-4.7412109,1.9892578
		c-1.3662109,0.7900391-2.6738281,1.9111328-4.0576172,3.0986328c-1.9521484,1.6738281-3.9707031,3.4042969-6.5048828,4.5351563
		c-2.5087891,1.1191406-5.1347656,1.4628906-7.6738281,1.7949219c-1.8212891,0.2382813-3.5410156,0.4628906-5.0634766,0.9580078
		c-1.4902344,0.484375-2.9980469,1.3037109-4.59375,2.171875c-2.2636719,1.2324219-4.6054688,2.5068359-7.3330078,3.0839844
		c-1.1542969,0.2431641-2.4033203,0.3623047-3.8173828,0.3623047c0,0,0,0-0.0009766,0
		c-1.3710938,0-2.7255859-0.109375-4.0351563-0.2148438c-1.8916016-0.1533203-3.7285156-0.2734375-5.1787109-0.1220703
		c-1.5498047,0.1611328-3.1914063,0.6484375-4.9287109,1.1650391C129.3515625,247.2402344,126.7958984,248,123.9990234,248z
		 M109.6591797,239.265625c0.7900391,0,1.512207,0.0351563,2.2070313,0.1064453
		c2.1049805,0.21875,4.0942383,0.8105469,6.0185547,1.3828125C120.0400391,241.3945313,122.0761719,242,123.9990234,242
		c1.9238281,0,3.9589844-0.6054688,6.1142578-1.2451172c1.9248047-0.5722656,3.9140625-1.1640625,6.0185547-1.3828125
		c1.921875-0.1972656,4.2128906-0.0576172,6.2822266,0.109375c1.2460938,0.1005859,2.4228516,0.1962891,3.5527344,0.1962891l0,0
		c0.9921875,0,1.8349609-0.0761719,2.5761719-0.2333984c1.8701172-0.3955078,3.7333984-1.4091797,5.7070313-2.4833984
		c1.7646484-0.9599609,3.5898438-1.953125,5.6074219-2.6083984c2.0488281-0.6650391,4.1279297-0.9375,6.1386719-1.2001953
		c2.2099609-0.2890625,4.2978516-0.5625,6.0087891-1.3261719c1.7353516-0.7734375,3.3417969-2.1513672,5.0419922-3.609375
		c1.5302734-1.3125,3.1132813-2.6699219,4.9589844-3.7373047c1.859375-1.0761719,3.8339844-1.7753906,5.7431641-2.4511719
		c2.1035156-0.7451172,4.0908203-1.4492188,5.6123047-2.5556641c1.5292969-1.1132813,2.8125-2.7910156,4.1699219-4.5673828
		c1.2285156-1.6054688,2.4980469-3.265625,4.0878906-4.6982422c1.5927734-1.4355469,3.3779297-2.5263672,5.1035156-3.5820313
		c1.9072266-1.1650391,3.7070313-2.2666016,4.9716797-3.6689453c1.2607422-1.4003906,2.1679688-3.3037109,3.1279297-5.3183594
		c0.8701172-1.828125,1.7705078-3.71875,3.0341797-5.4550781c1.2568359-1.7275391,2.7744141-3.1611328,4.2421875-4.5478516
		c1.6259766-1.5361328,3.1621094-2.9882813,4.1113281-4.6279297c0.9414063-1.6269531,1.4326172-3.6767578,1.9541016-5.8466797
		c0.4726563-1.96875,0.9609375-4.0058594,1.8359375-5.9697266c0.8662109-1.9423828,2.0478516-3.6552734,3.1894531-5.3115234
		c1.2744141-1.8466797,2.4775391-3.5917969,3.0654297-5.4033203c0.5771484-1.7783203,0.6298828-3.8808594,0.6845703-6.1064453
		c0.0498047-2.0292969,0.1015625-4.1279297,0.5488281-6.2402344c0.4375-2.0712891,1.2324219-3.9892578,2.0019531-5.84375
		c0.8613281-2.0761719,1.6748047-4.0371094,1.8720703-5.9443359c0.1923828-1.8427734-0.1923828-3.9013672-0.5996094-6.0800781
		C240.3876953,128.2529297,240,126.1767578,240,124c0-2.1772461,0.3876953-4.2529297,0.7626953-6.2602539
		c0.4072266-2.1791992,0.7919922-4.2368164,0.5996094-6.0791016c-0.1972656-1.9077148-1.0107422-3.8686523-1.8720703-5.9448242
		c-0.7695313-1.8544922-1.5644531-3.7719727-2.0029297-5.8442383c-0.4462891-2.1123047-0.4980469-4.2109375-0.5488281-6.2407227
		c-0.0546875-2.2260742-0.1064453-4.3286133-0.6835938-6.105957c-0.5888672-1.8125-1.7919922-3.5571289-3.0654297-5.4042969
		c-1.1425781-1.6567383-2.3242188-3.3696289-3.1904297-5.3120117c-0.875-1.9638672-1.3642578-4.0004883-1.8359375-5.9697266
		c-0.5214844-2.1699219-1.0126953-4.2197266-1.9541016-5.8461914c-0.9492188-1.6411133-2.4853516-3.0927734-4.1123047-4.6298828
		c-1.4667969-1.3862305-2.984375-2.8198242-4.2412109-4.5473633c-1.2636719-1.7353516-2.1640625-3.6259766-3.0351563-5.4541016
		c-0.9599609-2.015625-1.8671875-3.9189453-3.1279297-5.3193359c-1.2636719-1.4023438-3.0644531-2.5024414-4.9697266-3.6674805
		c-1.7265625-1.0556641-3.5117188-2.1464844-5.1044922-3.581543c-1.5908203-1.4331055-2.8603516-3.09375-4.0878906-4.699707
		c-1.3583984-1.7763672-2.640625-3.4541016-4.1699219-4.5664063c-1.5214844-1.1074219-3.5087891-1.8110352-5.6132813-2.5556641
		c-1.9091797-0.6757813-3.8828125-1.3745117-5.7421875-2.4501953c-1.8466797-1.0678711-3.4287109-2.425293-4.9589844-3.737793
		c-1.7001953-1.4584961-3.3066406-2.8359375-5.0410156-3.6098633c-1.7119141-0.7631836-3.7998047-1.0366211-6.0097656-1.3256836
		c-2.0107422-0.2631836-4.0898438-0.5356445-6.1386719-1.2006836c-2.0175781-0.6552734-3.8427734-1.6484375-5.6074219-2.6088867
		c-1.9726563-1.0732422-3.8359375-2.0874023-5.7070313-2.4829102c-1.5839844-0.3349609-3.7871094-0.2270508-6.1279297-0.0375977
		c-2.0703125,0.1669922-4.3632813,0.3081055-6.2822266,0.1088867c-2.1044922-0.2182617-4.09375-0.8095703-6.0185547-1.3813477
		C127.9580078,6.6049805,125.9228516,6,123.9990234,6c-1.9228516,0-3.9584961,0.6049805-6.1132813,1.2451172
		c-1.9243164,0.5717773-3.9145508,1.1630859-6.0185547,1.3813477c-1.9189453,0.1987305-4.2119141,0.0585938-6.2817383-0.1088867
		c-2.340332-0.1894531-4.5454102-0.2978516-6.1279297,0.0375977c-1.8710938,0.3955078-3.734375,1.409668-5.7070313,2.4833984
		c-1.7651367,0.9604492-3.590332,1.9536133-5.6083984,2.6088867c-2.0483398,0.6650391-4.1274414,0.9375-6.1381836,1.2006836
		c-2.2104492,0.2895508-4.2983398,0.5625-6.0097656,1.3256836c-1.7353516,0.7739258-3.3417969,2.1518555-5.0424805,3.6108398
		c-1.5302734,1.3120117-3.1123047,2.6694336-4.9575195,3.7368164c-1.859375,1.0761719-3.8339844,1.7749023-5.7436523,2.4506836
		c-2.1035156,0.7451172-4.0908203,1.4482422-5.6123047,2.5556641c-1.5288086,1.112793-2.8110352,2.7900391-4.1689453,4.565918
		c-1.2280273,1.6064453-2.4980469,3.2675781-4.0883789,4.7006836c-1.5932617,1.4350586-3.378418,2.5263672-5.1054688,3.581543
		c-1.9057617,1.1650391-3.7060547,2.265625-4.9692383,3.6679688c-1.2617188,1.3999023-2.168457,3.3037109-3.128418,5.3193359
		c-0.8706055,1.8276367-1.7709961,3.7182617-3.0341797,5.4536133c-1.2573242,1.7275391-2.7749023,3.1616211-4.2421875,4.5478516
		c-1.6264648,1.5371094-3.1630859,2.9887695-4.1123047,4.6293945c-0.940918,1.6259766-1.4321289,3.675293-1.9526367,5.8447266
		C19.3637695,72.809082,18.8754883,74.8461914,18,76.8100586c-0.8662109,1.9418945-2.0473633,3.6547852-3.1899414,5.3110352
		c-1.2739258,1.847168-2.4770508,3.5917969-3.0654297,5.4042969c-0.5771484,1.7773438-0.6293945,3.8798828-0.684082,6.1054688
		c-0.050293,2.0297852-0.1020508,4.128418-0.5488281,6.2402344c-0.4384766,2.0717773-1.2333984,3.9892578-2.0024414,5.8432617
		c-0.8608398,2.0766602-1.6743164,4.0380859-1.8725586,5.9458008c-0.1914063,1.8417969,0.1933594,3.8999023,0.6000977,6.0786133
		c0.375,2.0078125,0.7626953,4.0839844,0.7626953,6.2612305c0,2.1777344-0.3876953,4.2539063-0.7626953,6.2617188
		c-0.4067383,2.1787109-0.7915039,4.2363281-0.6000977,6.078125c0.1982422,1.9072266,1.0117188,3.8681641,1.8725586,5.9453125
		c0.769043,1.8535156,1.5639648,3.7714844,2.0024414,5.8427734c0.4467773,2.1123047,0.4985352,4.2109375,0.5488281,6.2412109
		c0.0546875,2.2255859,0.1069336,4.3291016,0.684082,6.1054688c0.5883789,1.8134766,1.7915039,3.5576172,3.0654297,5.4052734
		c1.1425781,1.65625,2.3237305,3.3691406,3.1894531,5.3115234c0.8759766,1.9638672,1.3647461,4.0009766,1.8374023,5.9716797
		c0.5205078,2.1699219,1.012207,4.21875,1.9526367,5.84375c0.9492188,1.640625,2.4853516,3.0917969,4.1118164,4.6289063
		c1.4677734,1.3867188,2.9853516,2.8203125,4.2431641,4.5478516c1.2626953,1.7363281,2.1630859,3.6259766,3.0341797,5.4541016
		c0.9599609,2.015625,1.8666992,3.9189453,3.1279297,5.3193359c1.2641602,1.4023438,3.0644531,2.5029297,4.9707031,3.6679688
		c1.7265625,1.0556641,3.5117188,2.1464844,5.1044922,3.5820313c1.5908203,1.4326172,2.8603516,3.09375,4.0883789,4.7001953
		c1.3579102,1.7763672,2.640625,3.4541016,4.1694336,4.5664063c1.5209961,1.1074219,3.5083008,1.8105469,5.6123047,2.5556641
		c1.9091797,0.6757813,3.8837891,1.3740234,5.7431641,2.4501953c1.8452148,1.0673828,3.4267578,2.4248047,4.956543,3.7363281
		c1.7006836,1.4589844,3.3071289,2.8369141,5.0429688,3.6103516c1.7114258,0.7636719,3.7993164,1.0371094,6.0097656,1.3261719
		c2.0107422,0.2626953,4.0898438,0.5351563,6.1386719,1.2001953c2.0175781,0.6552734,3.8417969,1.6484375,5.605957,2.6083984
		c1.9731445,1.0742188,3.8369141,2.0878906,5.7075195,2.4833984c1.5844727,0.3359375,3.7875977,0.2275391,6.128418,0.0371094
		C106.9042969,239.375,108.2685547,239.265625,109.6591797,239.265625z"/>
</g>
</svg>
