<?xml version="1.0" encoding="utf-8"?>
<!-- Generator: Adobe Illustrator 16.0.3, SVG Export Plug-In . SVG Version: 6.00 Build 0)  -->
<!DOCTYPE svg PUBLIC "-//W3C//DTD SVG 1.1//EN" "http://www.w3.org/Graphics/SVG/1.1/DTD/svg11.dtd">
<svg version="1.1" id="logo-stamp" xmlns="http://www.w3.org/2000/svg" xmlns:xlink="http://www.w3.org/1999/xlink" x="0px" y="0px"
	 width="380px" height="380px" viewBox="0 0 380 380" style="enable-background:new 0 0 380 380;" xml:space="preserve">
<style type="text/css">
<![CDATA[
	.logo-fill{fill:#ffffff;}
]]>
</style>
<g>
	<g>
		<path class="logo-fill" d="M283.2,220.7l-2.2-3.9l2.7-2.5c0-1.4-0.1-2.7-0.1-4.1l-1.6-3.6l1.5-1c-0.1-2.1-0.1-4.1-0.2-6.2l-1.1-2.5
			l1-1.2c0-2-0.1-3.9-0.1-5.9c-6.8-0.8-71.9-8.6-78.6-9.4l27,49.2l0.1,9.2l-18.3-21.6l-2.3,1.6l20.8,35.7c1.3-0.2,2.6-0.2,3.8-0.4
			c11.6-1.1,22.8-5.5,32.1-12.5C274.9,236.5,281.3,229.3,283.2,220.7z M246.5,244.7l4.3-4.9l-11.5,1.8l0-0.6l12-8.8l-11.8,2.8l0-0.6
			l11.8-10.3l-11.7,3.2v0c-4.9-7.7-22.1-35-25.9-40.9l63.5,8.6c0,0.8-0.1,1.5-0.1,2.3L263.5,213l13.4-6.7c0,0.1,0,0.3,0,0.4
			l-12.4,13.8l12.2-5.2l0,0.4l-15.2,15.4l10.8-3.9c-2.7,3.6-6.1,6.6-9.7,9.2C259.9,238.5,252.2,242.8,246.5,244.7z"/>
		<path class="logo-fill" d="M95.2,178.2c0.1,2.9,0.2,6.3,0.3,10.3l1.6,2.2l-1.2,4c1.6,10.4,9.9,18.5,18.7,23.9
			c10.5,6.4,22.6,9.9,34.7,11.8c16.6,2.6,34.1,2.4,50.6-1.1l4.4-1.1c-0.2-1.4-0.4-3-0.6-4.8l-2.3-3.4l1.5-3.3
			c-0.2-1.6-0.4-3.3-0.6-5l-1.7-4.3l1-2v0c-0.2-1.8-0.4-3.4-0.6-4.9l-1-2.7l0.5-0.9c-0.2-1.8-0.3-3.1-0.4-3.5
			c-5.8-8-20.4-28.4-22-30.5c7.9,1,64.3,8.4,67.1,8.7c0-2.2,0.1-4.4-0.1-6.6c-1.2-8.9-6.8-15.9-13.8-21.1l-2.6,0.4l-0.7-2.7
			l-1.8-1.1c0,0-0.1,0-0.1,0l-4.1,0.7l-0.2-3.1c-1.5-0.8-3.1-1.5-4.7-2.2l-3.5,0.6v-2c-6.9-2.6-14-4.4-21.2-5.6
			c-12.6-2.2-25.6-2.5-38.3-0.9c-12.4,1.5-24.8,4.6-35.9,10.4c-7.3,3.8-14,8.8-18.4,15.7l0,1.7l-1.7,4.4l-1.7,0.8
			c-0.9,2.7-0.7,5.3-0.8,9l1.4,2.3l-0.5,3.8L95.2,178.2z M103.8,167.8c0-0.1,0-0.1,0-0.2l17.2,8.1l-13.3-19.2
			c3.4-4.6,8-8.1,12.9-10.8c5.3-3,11.1-5.3,16.9-7c12.2-3.6,25-5.2,37.7-4.8c9.2,0.2,18.6,1.5,27.5,3.8l-14.4,5l20.5-3.1
			c1.3,0.4,2.5,0.9,3.7,1.3l-10.2,3.9l14.8-2c0.1,0,2.4,1.1,2.4,1.1c0,0,0.1,0,0.1,0l-1.4,1.6h4.4c1.9,1.1,3.8,2.3,5.6,3.6
			c3.8,2.8,7.4,6.3,9.4,10.7c0.8,1.7,1.3,3.4,1.6,5.2c-7.7-1-68.1-8.5-72.5-9l26.3,39.7l0,0.5l-24.5,2.4l24.6,5.1l0,0.1l-30,3.1
			l26.3,7.5l-37.8,1.2l21.2,6.8l-1,0c-11.3,0.2-22.7-0.8-33.6-3.7c-11-2.8-23.2-7.7-30.3-17c-0.8-1-1.5-2-2.1-3.2l13.1,3.7
			L104,187.8l-0.1-2.3l0-0.1L121,190l-17.2-17.8V167.8z"/>
		<path class="logo-fill" d="M116.5,246.5c0.1,0,0.2-0.1,0.2-0.1c2.2-1,4.4-2.1,6.2-3.5c1.8-1.4,3.4-3,4.7-4.9c1.5-2.2,2.4-4.8,3.1-7.4
			c-1.7-0.5-3.4-1.1-5-1.7c-1.1,3.9-2.9,7.2-6.3,9.5c-1.9,1.3-3.9,2.3-6.2,2.9c-3.6,1-7.4,0.3-11.1-0.2c-4.4-0.7-8.9-1.1-13.3-0.5
			c1.1,2.2,2.3,4.4,3.5,6.5c4-0.3,7.9,0.3,11.8,0.7c2,0.2,4,0.3,6,0.2c2.1-0.1,4.1-0.7,6.2-1.3C116.4,246.5,116.5,246.5,116.5,246.5
			z"/>
		<path class="logo-fill" d="M94.2,222.3c0,0-0.3,0-0.4,0c0.1,0,0.1,0,0.2,0C94.1,222.3,94.2,222.3,94.2,222.3z"/>
		<path class="logo-fill" d="M101,227.4c3.8-1.2,7.7-2.7,10.5-5.7c-1.6-1-3.2-2.1-4.7-3.3c-3.6,2.8-8.1,3.8-12.5,3.8c0,0,0,0-0.2,0
			c-0.2,0-0.2,0-0.2,0c-4.8-0.3-9.1-2.7-13.4-4.5c0.7,2.7,1.4,5.3,2.3,7.8C88.6,227.9,94.8,229.3,101,227.4z"/>
		<path class="logo-fill" d="M289.8,243.1c1.2-2.3,2.4-4.6,3.4-7c-0.6-0.9-1.1-1.9-1.7-2.9c-0.6-1.1-0.6-1-0.3-0.6
			c-1.3-2.3-2.7-4.7-4.5-6.9c-0.9,2.2-1.9,4.2-3.2,6.2C285.7,235.5,287.3,239.5,289.8,243.1z"/>
		<path class="logo-fill" d="M158.4,235.9c-1.8-0.2-3.6-0.4-5.4-0.6c-0.4,4.2-3.5,7.3-7.1,9.2c-2.5,1.1-5.3,1.3-8,1.9
			c-3,0.6-5.9,1.5-8.6,3c-5.6,3-10.3,8.3-13.4,13.8c-1.6,2.8-2.7,5.8-3.5,9c2.3,2.1,4.6,4.2,7,6.1c0.4-2.5,0.8-5.1,1.6-7.6
			c0.5-1.7,1.3-3.2,2.1-4.7c0.9-1.9,2.3-3.6,3.7-5.2c2.5-3,5.5-5.5,9.2-7c4.7-1.8,10-2,14.4-4.8
			C154.6,245.9,158.1,241.4,158.4,235.9z"/>
		<path class="logo-fill" d="M288.4,200.5c4.3-2.3,9.6-2.4,14.2-1.1c0.2-2,0.3-4,0.3-6c-1.9-0.3-3.8-0.5-5.7-0.6c-1.9,0-1.3,0-0.6,0
			c-3.1,0-6.4,0.7-9.3,2c0.3,0.6,0.5,1.2,0.8,1.7C288.6,197.6,288.3,199.3,288.4,200.5z"/>
		<path class="logo-fill" d="M222,289.8c-3.4-5.5-5.9-12.3-4.7-18.8c1-5.8,4.4-11.2,3.1-17.2c-1-4.7-3.2-9.1-7.4-11.8
			c-3.7-2.3-10.4-3.5-9.8-9.1c-1.5,0.4-3,0.7-4.6,1c0.2,3.6,1.9,6.7,4.8,8.8c2.2,1.6,5,2.4,7.1,4.2c1.9,1.5,2.9,3.6,3.6,5.9
			c1.4,4.4-0.8,8.7-2.3,12.8c-1,2.9-1.7,5.8-1.8,8.8c-0.1,2.9,0.4,5.8,1,8.6c1.3,6,4.4,11.4,8.4,16c2.9-0.8,5.8-1.7,8.7-2.7
			C225.7,294.3,223.6,292.3,222,289.8z"/>
		<path class="logo-fill" d="M192.9,244c-1.5-1.5-3.8-3-4.5-5.1c-0.5-1-0.4-2.2-0.3-3.3c-1.6,0.2-3.1,0.3-4.7,0.4c-0.2,1.4,0,3.1,0.5,4.4
			c0.8,2.8,3,4.8,4.9,6.9c2,2.1,3.4,4.3,3.6,7.3c0.1,1.6,0,3.3-0.5,4.9c-0.7,2.4-2.3,4.4-3.9,6.2c-1.9,2.2-3.7,4.5-5.2,7.1
			c-2.2,4.1-3.3,8.7-3.4,13.3c-0.1,2.7-0.1,5.4,0.4,8c0.6,3,1.4,5.9,2.6,8.7c3.1,0.2,6.1,0.3,9.2,0.2c-2-3.3-3.4-6.6-4.3-10.3
			c-0.5-2.4-0.5-4.8-0.6-7.3c-0.1-4.9,1.6-9.4,4.5-13.4c3.2-4.5,7.1-8.9,7-14.7c0-2.1-0.1-4.2-0.8-6.3
			C196.6,248.2,194.9,245.9,192.9,244z"/>
		<path class="logo-fill" d="M259.5,269.4c-4.6-3.2-9-7.5-11.1-12.8c-2.2,0.7-4.4,1.3-6.7,1.8c2.7,8.7,10.2,16.4,18.3,20.3
			c2.3-1.9,4.6-3.8,6.8-5.9C264.2,271.9,261.7,270.9,259.5,269.4z"/>
		<path class="logo-fill" d="M96.4,207.5c-1-1.6-1.9-3.2-2.6-5c-4.9,2.3-11.1,2.4-16,0.5c0.3,2.2,0.6,4.4,1,6.6
			C84.5,211,91.1,210.3,96.4,207.5z"/>
		<path class="logo-fill" d="M173.3,236.4c-1.7,0-3.3,0-5,0c0.3,3,1.9,5.5,3,8.2c1.1,2.7,1.1,5.4,0.1,8.1c-0.5,1.3-1.1,2.4-1.9,3.6
			c-1.6,2.2-4.3,3.5-6.5,4.9c-5,3.1-9.2,7-11.8,12.3c-1.1,2.3-2.2,4.8-2.8,7.3c-1.2,4.5-1.7,9.1-1.1,13.8c2.8,1.2,5.7,2.2,8.7,3.2
			c-0.8-3.6-1.4-7-1.1-10.3c0.6-6.1,2.6-12.7,7-17.1c3.8-3.8,9.2-5.9,12.4-10.4c2.2-3.1,3.5-6.9,3.5-10.7c0-2.4-0.6-4.7-1.6-6.9
			C175.2,240.4,173.9,238.6,173.3,236.4z"/>
		<path class="logo-fill" d="M265.2,288.3c2-2,3.5-4.4,5.3-6.5c1.9-2.1,4.4-3.5,6.8-5c2.5-1.6,4.7-3.4,6.4-5.8c1.6-2.4,2.6-5.1,4-7.6
			c1.4-2.6,3.6-4.5,5.7-6.5c2.1-2,3.9-4.2,5-6.9c1.1-2.8,1.6-5.7,2.4-8.5c0.9-2.8,2.6-5.2,4.3-7.6c1.7-2.5,3-5.2,3.5-8.2
			c0.5-3,0.2-6,0.6-9.1c0.4-2.9,1.7-5.6,2.8-8.3c1.1-2.9,1.7-5.8,1.4-8.8c-0.3-3.1-1.2-6.1-1.3-9.2c-0.1-3.1,0.9-6.1,1.3-9.1
			c0.4-3.1,0-6-1.1-8.9c-1-2.7-2.5-5.4-2.9-8.3c-0.5-3-0.2-6-0.6-9c-0.4-3.1-1.6-5.8-3.2-8.4c-1.6-2.4-3.5-4.7-4.5-7.5
			c-1-2.8-1.3-5.7-2.4-8.5c-1-2.8-2.7-5-4.8-7.1c-2-2-4.4-3.9-5.9-6.4c-1.5-2.5-2.4-5.2-4-7.6c-1.6-2.5-3.7-4.4-6.2-6.1
			c-2.4-1.5-4.9-2.8-6.9-4.8c-1.9-2-3.4-4.4-5.3-6.5c-2-2.2-4.3-3.7-7-4.8c-2.6-1.1-5.5-1.7-7.9-3.2c-2.5-1.5-4.5-3.7-6.8-5.4
			c-2.4-1.8-5.1-2.9-8-3.4c-2.8-0.5-5.8-0.6-8.5-1.5c-2.8-1-5.2-2.7-7.9-3.9c-2.8-1.2-5.6-1.7-8.6-1.6c-2.9,0.1-5.9,0.7-8.8,0.2
			c-3-0.5-5.8-1.7-8.8-2.2c-3.1-0.6-6.1-0.2-9.1,0.6c-2.8,0.8-5.6,1.8-8.5,1.8c-3,0-6.1-0.6-9.1-0.4c-2.9,0.2-5.6,1.2-8.2,2.6
			c-2.6,1.4-5.1,2.9-8,3.5c-2.9,0.6-5.9,0.7-8.7,1.5c-2.8,0.8-5.1,2.4-7.3,4.2c-2.2,1.9-4.3,3.9-7.1,5c-2.6,1.1-5.5,1.8-8,3.2
			c-2.5,1.3-4.5,3.3-6.3,5.5c-1.7,2.2-3.3,4.6-5.5,6.2c-2.3,1.7-4.9,3-7.2,4.7c-2.4,1.8-4,4.1-5.4,6.8c-1.3,2.5-2.3,5.3-4.1,7.4
			c-1.9,2.2-4.2,4-6.1,6.2c-2,2.3-3.2,4.9-4,7.8c-0.8,2.8-1.2,5.7-2.5,8.2c-1.4,2.6-3.4,4.9-4.8,7.5c-1.5,2.8-2.1,5.8-2.2,8.9
			c-0.1,2.9,0,5.8-0.9,8.6c-0.9,2.8-2.3,5.4-3.1,8.3c-1.6,6.2,1.6,12.1,0.6,18.3c-0.5,3.1-1.3,6.2-1.1,9.3c0.2,3,1.2,5.7,2.4,8.4
			c1.2,2.8,1.9,5.4,2.1,8.5c0.1,3.1,0,6.3,1,9.3c0.9,2.8,2.6,5.2,4.3,7.6c1.7,2.5,2.8,5,3.5,7.9c0.7,2.9,1.4,5.9,2.9,8.5
			c1.5,2.4,3.6,4.3,5.6,6.2c2.2,2.1,3.8,4.3,5.1,7c1.2,2.6,2.5,5.3,4.4,7.4c1.9,2.2,4.5,3.6,6.9,5.2c2.5,1.5,4.5,3.2,6.3,5.6
			c1.7,2.2,3.3,4.5,5.5,6.2c2.3,1.8,5,2.8,7.7,3.8c2.8,1,5.3,2.1,7.6,4.1c2.2,1.8,4.2,3.8,6.7,5.1c2.7,1.4,5.6,1.9,8.6,2.2
			c3,0.4,5.6,1,8.3,2.4c2.6,1.4,5.1,2.9,8,3.6c2.9,0.8,5.9,0.5,8.9,0.3c3-0.2,5.7-0.1,8.6,0.7c2.9,0.8,5.8,1.8,8.9,1.8
			c4.1,0,7.8-1.8,11.7-2.5c2.9-0.5,5.8,0,8.7,0.2c2.9,0.1,5.7-0.2,8.3-1.3c2.7-1.1,5.2-2.8,7.9-3.9c2.7-1.1,5.6-1.2,8.5-1.7
			c3-0.5,5.7-1.4,8.2-3.1c2.4-1.6,4.4-3.8,6.8-5.4c2.4-1.6,5.2-2.3,7.8-3.3C260.7,291.8,263.1,290.4,265.2,288.3z M244.6,292.9
			c-2.3,1.8-4.4,4.1-7.2,5.2c-2.8,1-5.8,1-8.7,1.6c-3.1,0.6-5.8,1.8-8.5,3.3c-2.7,1.4-5.2,2.7-8.3,2.7c-3.1,0-6.1-0.6-9.2-0.4
			s-6,1.3-8.9,2.1c-1.5,0.4-3,0.7-4.6,0.6c-1.6-0.1-3.1-0.5-4.7-1c-3-0.9-5.9-1.7-9-1.7c-0.4,0-0.8,0-1.1,0
			c-2.9,0.1-5.9,0.7-8.8,0.2c-3-0.5-5.6-2.4-8.2-3.7c-2.8-1.4-5.7-2.1-8.8-2.5c-2.8-0.4-5.7-0.6-8.1-2.2c-2.5-1.6-4.5-3.7-6.8-5.4
			c-2.5-1.8-5.3-2.8-8.2-3.8c-2.7-1-5.1-2.1-7.1-4.3c-1.9-2.2-3.5-4.7-5.6-6.7c-2.1-2.1-4.7-3.5-7.2-5c-2.5-1.6-4.2-3.4-5.6-6.1
			c-1.3-2.6-2.4-5.4-4.2-7.7c-1.8-2.3-4.1-4.2-6.1-6.3c-2-2.1-3-4.5-3.7-7.4c-0.7-3-1.4-5.9-2.9-8.6c-1.4-2.6-3.5-4.9-4.8-7.6
			c-1.3-2.6-1.3-5.5-1.4-8.4c-0.1-3.1-0.5-6.1-1.6-9c-1.1-2.8-2.6-5.6-2.8-8.6c-0.2-3,0.8-6,1.2-9c0.4-3.2,0-6.2-0.5-9.3
			c-0.6-3-1-5.8,0-8.8c1-2.9,2.5-5.7,3.2-8.7c0.7-3,0.5-6.1,0.7-9.1c0.2-3.1,1.3-5.5,3-8c1.7-2.5,3.4-4.9,4.4-7.7
			c1-2.8,1.4-5.8,2.4-8.7c1-2.7,3.1-4.7,5.2-6.6c2.1-2,4.1-4.1,5.5-6.7c1.4-2.5,2.3-5.3,4.1-7.6c1.7-2.3,4.4-3.6,6.7-5.1
			c2.5-1.6,4.7-3.4,6.6-5.7c1.8-2.2,3.3-4.8,5.6-6.4c2.3-1.7,5.3-2.4,8-3.4c2.8-1.1,5.2-2.7,7.6-4.7c2.1-1.8,4.3-3.9,7-4.7
			c2.8-0.9,5.9-0.9,8.8-1.5c3.1-0.6,5.7-2.1,8.5-3.6c2.7-1.4,5.1-2.4,8.1-2.3c3,0.1,6,0.6,9,0.3c3.1-0.3,6-1.4,8.9-2.1
			c3.1-0.8,5.8-0.4,8.9,0.5c2.9,0.9,5.7,1.7,8.8,1.7c3,0,6-0.5,8.9-0.4c3,0.2,5.5,1.8,8.1,3.2c2.8,1.5,5.5,2.5,8.7,3
			c2.8,0.4,5.9,0.5,8.5,1.8c2.7,1.3,4.8,3.6,7.1,5.4c2.4,1.9,5.1,3.1,8,4.1c2.7,1,5.4,1.9,7.4,4c2,2.1,3.6,4.6,5.5,6.7
			c3.9,4.2,10.1,5.7,13,10.9c1.4,2.6,2.4,5.3,4.1,7.8c1.6,2.4,3.9,4.3,6,6.4c2.1,2.1,3.4,4.2,4.2,7.1c0.8,2.9,1.3,6,2.7,8.7
			c1.3,2.7,3.3,5,4.8,7.5c1.5,2.6,1.8,5.3,1.9,8.3c0.1,3.1,0.2,6.1,1.3,9.1c1,2.9,2.6,5.6,3.1,8.6c0.5,3-0.4,6-0.9,8.9
			c-0.5,3.2-0.4,6.2,0.2,9.3c0.5,2.9,1.3,5.9,0.5,8.8c-0.8,3-2.3,5.7-3.2,8.7c-0.9,3-0.8,6.1-1,9.1c-0.1,3-0.8,5.5-2.4,8.1
			c-1.6,2.5-3.5,4.8-4.6,7.6c-1.2,2.8-1.6,5.8-2.5,8.7c-1.8,5.7-7.5,8.4-10.5,13.4c-1.5,2.5-2.5,5.3-4,7.7c-1.6,2.5-4,3.9-6.4,5.4
			c-2.5,1.5-4.8,3.2-6.8,5.4c-1.9,2.2-3.4,4.7-5.6,6.6c-2.2,1.9-5.1,2.7-7.7,3.6C249.5,289.6,247,291,244.6,292.9z"/>
		<path class="logo-fill" d="M374.5,213.3c0.5-3.9,4.9-7.4,5.2-11.4c0.2-3.9-3.7-8-3.7-11.9c0-4,4-8,3.7-11.9c-0.2-4-4.7-7.5-5.2-11.4
			c-0.5-3.9,2.9-8.5,2.2-12.3c-0.7-3.9-5.6-6.8-6.6-10.6c-1-3.8,1.8-8.7,0.6-12.5c-1.2-3.8-6.4-6.1-7.8-9.7c-1.5-3.7,0.7-8.9-1-12.5
			c-1.7-3.6-7.1-5.2-9-8.7c-1.9-3.5-0.4-8.9-2.5-12.2c-2.1-3.3-7.7-4.3-10-7.5c-2.3-3.2-1.5-8.8-4-11.8c-2.5-3-8.2-3.3-10.9-6.2
			c-2.7-2.9-2.6-8.5-5.5-11.2c-2.9-2.7-8.5-2.2-11.6-4.8c-3-2.5-3.6-8.2-6.8-10.5c-3.2-2.3-8.7-1.2-12.1-3.3
			c-3.3-2.1-4.6-7.6-8.1-9.5c-3.4-1.9-8.8,0-12.4-1.7c-3.5-1.7-5.5-7-9.2-8.4c-3.7-1.4-8.7,1.1-12.5-0.2c-3.7-1.2-6.4-6.2-10.2-7.2
			c-3.8-1-8.5,2.2-12.4,1.4c-3.8-0.7-7.1-5.4-11-5.9c-3.9-0.5-8.2,3.2-12.1,3C197.8,4.2,194,0,190,0c-4,0-7.8,4.2-11.7,4.4
			c-4,0.2-8.3-3.5-12.1-3c-3.9,0.5-7.2,5.1-11,5.9c-3.9,0.7-8.6-2.4-12.4-1.4c-3.8,1-6.5,6-10.2,7.2c-3.8,1.2-8.8-1.3-12.5,0.2
			c-3.7,1.5-5.7,6.8-9.2,8.4c-3.6,1.7-8.9-0.2-12.4,1.7c-3.5,1.9-4.8,7.4-8.1,9.5c-3.3,2.1-8.9,1-12.1,3.3c-3.2,2.3-3.8,8-6.8,10.5
			c-3,2.5-8.7,2.1-11.6,4.8c-2.9,2.7-2.8,8.4-5.5,11.2c-2.7,2.9-8.4,3.1-10.9,6.2c-2.5,3-1.7,8.6-4,11.8c-2.3,3.2-7.9,4.1-10,7.5
			C27.4,91.5,29,97,27,100.4c-1.9,3.4-7.3,5.1-9,8.7c-1.7,3.6,0.5,8.8-0.9,12.5c-1.4,3.7-6.6,6-7.8,9.7c-1.2,3.7,1.6,8.7,0.6,12.5
			c-1,3.8-5.8,6.8-6.6,10.6c-0.7,3.8,2.7,8.4,2.2,12.3c-0.5,3.9-4.9,7.4-5.2,11.4c-0.2,3.9,3.7,8,3.7,11.9c0,4-4,8-3.7,11.9
			c0.2,4,4.7,7.5,5.2,11.4c0.5,3.9-2.9,8.5-2.2,12.3c0.7,3.9,5.6,6.8,6.6,10.6c1,3.8-1.8,8.7-0.6,12.5c1.2,3.8,6.4,6.1,7.8,9.7
			c1.5,3.7-0.7,8.9,0.9,12.5c1.7,3.6,7.1,5.2,9,8.7c1.9,3.5,0.4,8.9,2.5,12.2c2.1,3.3,7.7,4.3,10,7.5c2.3,3.2,1.5,8.8,4,11.8
			c2.5,3,8.2,3.3,10.9,6.2c2.7,2.9,2.6,8.5,5.5,11.2c2.9,2.7,8.5,2.2,11.6,4.8c3,2.5,3.6,8.2,6.8,10.5c3.2,2.3,8.7,1.2,12.1,3.3
			c3.3,2.1,4.6,7.6,8.1,9.5c3.4,1.9,8.8,0,12.4,1.7c3.6,1.7,5.5,7,9.2,8.4c3.6,1.4,8.7-1.1,12.5,0.2c3.7,1.2,6.4,6.2,10.2,7.2
			c3.8,1,8.5-2.2,12.4-1.4c3.8,0.7,7.1,5.4,11,5.9c3.9,0.5,8.2-3.2,12.1-3c3.9,0.2,7.7,4.4,11.7,4.4c4,0,7.8-4.2,11.7-4.4
			c4-0.2,8.3,3.5,12.1,3c3.9-0.5,7.2-5.1,11-5.9c3.9-0.7,8.6,2.4,12.4,1.4c3.8-1,6.5-6,10.2-7.2c3.8-1.2,8.8,1.3,12.5-0.2
			c3.7-1.5,5.7-6.8,9.2-8.4c3.6-1.7,8.9,0.2,12.4-1.7c3.5-1.9,4.8-7.4,8.1-9.5c3.3-2.1,8.9-1,12.1-3.3c3.2-2.3,3.8-8,6.8-10.5
			c3-2.5,8.7-2.1,11.6-4.8c2.9-2.7,2.8-8.4,5.5-11.2c2.7-2.9,8.4-3.1,10.9-6.2c2.5-3,1.7-8.6,4-11.8c2.3-3.2,7.9-4.1,10-7.5
			c2.1-3.3,0.6-8.8,2.5-12.2c1.9-3.4,7.3-5.1,9-8.7c1.7-3.6-0.5-8.8,1-12.5c1.4-3.6,6.6-6,7.8-9.7c1.2-3.7-1.6-8.6-0.6-12.5
			c1-3.8,5.8-6.8,6.6-10.6C377.4,221.8,374,217.2,374.5,213.3z M190,366.7c-97.6,0-176.7-79.1-176.7-176.7
			C13.3,92.4,92.4,13.3,190,13.3c97.6,0,176.7,79.1,176.7,176.7C366.7,287.6,287.6,366.7,190,366.7z"/>
		<path class="logo-fill" d="M70.8,86.9c0.5-0.4,0.5-0.4,0.2-1c-0.7-1.8-1.2-3.7-1.4-5.6c-0.2-1.7,0.2-2.7,1.3-4c0.9-1,1.8-1.9,2.7-2.7
			c0.4,0.4,0.8,0.8,1.2,1.2c4,4.2,8,8.5,12,12.7c1.6,1.7,3.3,3.5,4.9,5.2c0.3,0.3,0.5,0.5,0.8,0.8c2.1,2.2-0.2,4.2-1.7,5.9l1.3,1.4
			l14-13.3c-0.4-0.4-0.7-0.8-1.1-1.1c-0.3-0.3-0.3-0.2-0.6,0.1c-0.4,0.3-0.8,0.6-1.3,0.8c-1.6,1-3.1,1.6-4.5,0
			C92.4,80.7,86.2,74.1,80,67.6c0.7-0.6,1.3-1.3,2-1.9c0.9-0.7,1.8-1.7,2.9-1.9c2.6-0.4,5.8,0.9,8,2.1l1.4-1.3
			c-2.1-2.3-4.3-4.5-6.4-6.8c-0.5-0.5-0.4-0.4-0.9,0c-0.7,0.7-1.5,1.4-2.2,2.1c-7.2,6.9-14.5,13.7-21.7,20.5l6.8,7.2
			C70.3,87.4,70.5,87.1,70.8,86.9z"/>
		<path class="logo-fill" d="M150.8,61.9c7.3-9.1,3.3-24.2-7.6-28.4c0.5,0.2,1,0.4,0,0c-1-0.4-0.5-0.2,0,0c-7.9-3-17.6,0.1-22.7,6.7
			c-5,6.6-4.3,16.4,0.8,22.7C128.6,72.1,143.6,70.8,150.8,61.9z M128.1,36.9c2.2-1.6,5-2,7.5-0.9c2.5,1.2,4.3,3.4,5.7,5.8
			c2.9,4.9,5.4,11.2,4.9,17c-0.2,2.7-1.5,5.1-3.9,6.4c-2.6,1.4-5.4,1.2-7.9-0.5c-2.3-1.6-4-4.1-5.3-6.5c-1.4-2.7-2.5-5.6-3.3-8.5
			C124.9,45.5,124.2,39.8,128.1,36.9z"/>
		<path class="logo-fill" d="M178.2,32.3c0.7-1.8,1.8-3.5,3-5c1.1-1.3,2-1.8,3.7-1.9c1.3-0.1,2.6-0.1,3.9,0c0,0.6,0,1.1,0,1.7
			c-0.1,5.8-0.3,11.7-0.4,17.5c-0.1,2.4-0.1,4.8-0.2,7.1c0,0.4,0,0.7,0,1.1c-0.1,3-3.1,2.8-5.4,3l0,1.9l19.3,0.4c0-0.5,0-1,0-1.6
			c0-0.4,0-0.3-0.5-0.4c-0.5-0.1-1-0.2-1.5-0.3c-1.8-0.4-3.3-1-3.2-3.2c0.2-9,0.4-18.1,0.6-27.1c0.9,0,1.8,0,2.7,0.1
			c1.1,0.1,2.4,0,3.4,0.7c2.1,1.6,3.5,4.7,4.3,7.1l1.9,0c0.1-3.1,0.1-6.2,0.2-9.3c0-0.7,0-0.6-0.6-0.6c-1,0-2,0-3-0.1
			c-10-0.2-19.9-0.5-29.9-0.7l-0.2,9.9c0.4,0,0.8,0,1.2,0C178,32.9,177.9,32.9,178.2,32.3z"/>
		<path class="logo-fill" d="M234.6,64.3c0.2-0.5,0.5-0.7,0-1c-1.2-0.6-3-1.5-3.6-2.8c-0.5-1.1,0.9-2.5,1.6-3.3c1.1-1.3,2.3-2.5,3.4-3.7
			l11.1,4.5c0,2.1,0,4.1,0,6.2c0,0.8,0.1,1.7-0.1,2.5c-0.4,1.4-4.2,0-5.1-0.3l-0.7,1.8l17.5,7.1c0.2-0.4,0.3-0.8,0.5-1.1
			c0.3-0.8,0.2-0.6-0.6-1.1c-1.6-1-2.8-2.4-2.9-4.3c-0.3-3.6-0.1-7.4,0-11c0.1-7.2,0.1-14.4,0.1-21.6c-0.8-0.3-1.6-0.6-2.4-1
			c-0.5-0.2-1-0.4-1.5-0.6c-0.1-0.1-0.5-0.3-0.7-0.3c-3.1,3.2-6.3,6.3-9.4,9.5c-3.3,3.3-6.6,6.6-9.8,10c-1.5,1.5-2.9,3.4-4.9,4.4
			c-1.7,0.8-3.5,0.6-5.3,0L221,60l13.2,5.4C234.3,65,234.4,64.7,234.6,64.3z M247.2,41.9l-0.1,13.5c-3.1-1.3-6.2-2.5-9.2-3.8
			C241,48.4,244.1,45.2,247.2,41.9z"/>
		<path class="logo-fill" d="M300.9,97.8c-0.4-0.4-0.8-0.7-1.1-1.1c-0.3-0.3-2,0.6-2.5,0.8c-2,0.7-4.6,1.8-6.8,1.4
			c-2.2-0.4-4.3-2.7-5.8-4.2c-1.6-1.5-3.2-3.2-1.6-5.4c1.1-1.5,2.5-2.8,3.8-4.1c2.1-2.3,4.3-4.5,6.4-6.8c1.9-2,3.7-4,5.6-5.9
			c0.3-0.4,0.7-0.7,1-1.1c2-2.1,4.2,0,6,1.4l1.3-1.4l-13.8-13.1c-0.4,0.4-0.7,0.8-1.1,1.1c-0.3,0.3-0.2,0.3,0.1,0.6
			c0.3,0.4,0.6,0.9,0.9,1.3c1,1.5,1.4,2.9,0.1,4.3c-3.4,3.6-6.8,7.2-10.3,10.8c-1.8,1.9-3.6,3.8-5.5,5.8c-0.3,0.4-0.7,0.7-1,1.1
			c-2,2.1-4.1,0.1-5.8-1.3l-1.3,1.4l23.2,21.9L300.9,97.8z"/>
		<polygon class="logo-fill" points="43.9,248.2 43.9,248.2 43.9,248.2 		"/>
		<path class="logo-fill" d="M56.5,248.9c2.2,1.6,4.8,1.8,7.3,0.6c6.8-3.5,2.4-13.1,0.6-18.5c-1.6-4.7-3.2-9.4-4.9-14
			c-0.5,0.2-1.1,0.4-1.6,0.6c-0.4,0.1,0.1,2,0.1,2.5c0.1,1.7-0.2,2.9-1.9,3.5c-4.7,1.6-9.4,3.2-14.1,4.9c-2.5,0.9-5,1.7-7.5,2.6
			c-0.5,0.2-0.9,0.3-1.4,0.5c-2.7,0.9-3.7-1.8-4.6-3.8l-1.8,0.6c0.2,0.4,0.3,0.9,0.5,1.3c1.8,5.1,3.5,10.2,5.3,15.3
			c1.4,4,3.1,8.5,6.4,11.3c4.4,3.7,11.3,1.2,12.8-4.2c-0.1,0.3-0.1,0.5,0,0c0.1-0.5,0.1-0.3,0-0.1c0.7-2.5,0.5-5.3-0.1-7.9
			c0.5-0.3,0.6,0.1,0.8,0.4c0.4,0.6,0.8,1.1,1.2,1.7C54.5,247.2,55.4,248.1,56.5,248.9z M43.9,248.2C44.5,248,45.1,247.8,43.9,248.2
			C42.8,248.6,43.3,248.4,43.9,248.2c-2.7,0.9-5.7,0.9-7.8-1.3c-1.4-1.5-3-5.6-0.7-7.1c3.5-1.2,6.9-2.4,10.4-3.6
			c0.5-0.2,1-0.4,1.6-0.5c0.3-0.1,1.4,4.2,1.5,4.6C49.4,244,47.4,247,43.9,248.2z M52,239.7c-1.2-1.4-1.8-3.1-2.4-4.8
			c3.3-1.1,6.6-2.3,9.8-3.4c0.7-0.2,1.3-0.5,2-0.7c0,0,0.2-0.1,0.3-0.1c0.3,0.8,0.6,1.5,0.9,2.3c0.6,1.7,0.9,3.7,0,5.4
			c-0.8,1.4-2.1,2.3-3.6,2.8c0.4-0.2,0.8-0.3,0,0c-1,0.4-0.5,0.2,0,0C56.6,242,53.8,241.7,52,239.7z"/>
		<path class="logo-fill" d="M59.1,241.1C59.1,241.1,59.1,241.1,59.1,241.1C59.1,241.1,59.1,241.1,59.1,241.1
			C59.1,241.1,59.1,241.1,59.1,241.1z"/>
		<path class="logo-fill" d="M79.7,264.9c-0.4,0.4-0.8,0.8-1.3,1.1c-0.3,0.3,0.9,1.8,1.1,2.2c0.8,1.6,1,2.8-0.4,4
			c-3.7,3.4-7.5,6.7-11.2,10.1c-1.9,1.7-3.9,3.5-5.8,5.2c-0.4,0.3-0.7,0.6-1.1,0.9c-2.1,1.9-4-0.3-5.7-1.7l-1.4,1.3l12.4,13.7
			c0.3-0.2,1.4-0.9,1.4-1.3c-0.8-1-1.7-2.4-1.8-3.7c-0.1-1.4,1.4-2.4,2.3-3.2c2.2-1.9,4.3-3.9,6.5-5.8c0.3,0.3,0.5,0.6,0.8,0.9
			c0.3,0.4-0.2,2.2-0.3,2.7c-0.3,1.9-0.6,3.7-1,5.6c-0.7,3.6-1.6,7.2-2.6,10.7l8.9,9.9c0.4-0.4,0.8-0.7,1.2-1.1
			c0.5-0.4-0.4-1.1-0.7-1.5c-1.2-1.9-0.9-4-0.6-6.1c0.6-4.8,1.6-9.5,2.4-14.3c2.1,1.3,4.6,2.5,7.1,2.4c2.5,0,4.8-1.4,6.3-3.3
			c5.1-6.1-2.8-13.4-6.7-17.8C86.3,272.3,83,268.6,79.7,264.9z M88,288.6C87.9,288.6,87.9,288.6,88,288.6L88,288.6z M88.6,288
			c-2.1,1.9-4.8,3.2-7.6,2.1c-1.9-0.8-3.2-2.3-4.5-3.8l10.8-9.7c1.3,1.4,2.7,2.8,3.4,4.6C91.6,283.9,90.6,286.2,88.6,288z"/>
		<path class="logo-fill" d="M115.4,301.5c-0.2,0.3,0.4,0.5,0.6,0.7c0.5,0.5,1.1,0.9,1.6,1.4c1.1,1.2,1.3,2.3,0.5,3.7
			c-2.6,4.5-5.1,9-7.7,13.5c-1.3,2.2-2.5,4.4-3.8,6.6c-0.2,0.4-0.4,0.7-0.6,1.1c-1.5,2.6-4.1,0.9-6-0.1l-0.9,1.7l16.7,9.5
			c0.3-0.5,0.6-1,0.8-1.5c0.2-0.3-0.3-0.4-0.5-0.6c-0.5-0.4-1-0.8-1.5-1.2c-1.3-1.1-1.7-2.3-0.8-3.9c2.5-4.4,5-8.8,7.5-13.2
			c1.3-2.3,2.6-4.5,3.9-6.8c0.2-0.4,0.5-0.8,0.7-1.2c1.5-2.5,4.1-1,6.1-0.1l0.9-1.7l-16.7-9.5C116,300.5,115.7,301,115.4,301.5z"/>
		<path class="logo-fill" d="M174.1,321.8c-9.5-2.1-19-4.2-28.5-6.3c-0.1,0.6-0.2,1.1-0.4,1.7c-0.1,0.4,1.9,1,2.2,1.2
			c1.5,0.8,2.3,1.7,1.9,3.5c-1.1,5-2.2,9.9-3.3,14.9c-0.6,2.5-1.1,5-1.7,7.6c-0.1,0.4-0.2,0.9-0.3,1.3c-0.6,2.8-3.5,2.2-5.6,1.9
			l-0.4,1.9l31.7,7l3-10.4c-0.5-0.1-1-0.2-1.5-0.3c-0.4-0.1-1,1.1-1.3,1.4c-1.4,1.7-2.9,3.4-4.7,4.6c-1.9,1.3-5.1,0.3-7.1-0.1
			c-1.7-0.4-4.6-0.7-5.3-2.5c-0.4-1.2,0-2.7,0.3-3.9c0.2-1.1,0.5-2.2,0.7-3.2c0.4-2,0.9-4,1.3-5.9c1.6,0.3,3.3,0.6,4.8,1.1
			c3,1.1,3.8,4.1,3.5,7.1l1.8,0.4l3.1-14.1c-0.4-0.1-0.9-0.2-1.3-0.3c-0.1,0-0.4-0.2-0.5-0.1c-0.1,0.4-0.3,0.7-0.5,1.1
			c-0.9,1.7-2.1,3.3-4.2,3.6c-2,0.3-4.3-0.5-6.3-0.9l2.9-13.1c1.9,0.4,3.8,0.8,5.7,1.3c1.9,0.4,3.7,0.8,5,2.4
			c1.4,1.7,2.3,3.9,2.6,6.1l1.8,0.4c0.5-2.4,1-4.7,1.6-7.1c0-0.2,0.4-1.5,0.3-1.6C175,322,174.6,321.9,174.1,321.8z"/>
		<path class="logo-fill" d="M222.7,350.5c-2.4,1.4-5.5,1.8-8.1,1.1c-2.6-0.7-4.4-2.6-5.7-4.9c-1.3-2.4-2.1-5-2.6-7.7
			c-0.5-2.8-0.7-5.6-0.4-8.4c0.3-2.2,0.9-4.5,2.3-6.2c1.5-1.8,3.6-2.7,5.9-2.8c5.6-0.3,9,5.1,11.2,9.6l2.1-0.3l-2.1-12.5l-2.1,0.3
			c-0.4,0.5-0.8,1-1.2,1.5c-0.1,0.2-3.1-0.7-3.5-0.8c-1.4-0.2-2.8-0.3-4.2-0.2c-2.9,0.2-5.8,1-8.4,2.3c-5.1,2.7-8.5,7.5-9.3,13.2
			c-0.8,5.6,0.9,11.8,4.8,15.9c4,4.3,10.2,5.8,15.9,4.9c-0.6,0.1-1.3,0.2,0,0c0.9-0.1,0.5-0.1,0,0c3.2-0.5,6.2-1.7,8.7-3.8
			c2.4-2.1,4-4.9,4.9-8c-0.8-0.3-1.5-0.6-2.3-0.9C227.5,345.8,225.7,348.8,222.7,350.5z"/>
		<path class="logo-fill" d="M290.3,322.1c-1.8,0.7-3.6,0.8-5.2-0.3c-3-2-5.9-4.4-8.8-6.6c-5.7-4.4-11.4-8.8-17.1-13.2
			c-0.7,0.4-1.5,0.9-2.2,1.3c-0.5,0.3-0.9,0.5-1.4,0.8c-0.1,0.1-0.5,0.2-0.6,0.4c0.6,4.4,1.2,8.8,1.9,13.3c0.7,4.6,1.3,9.2,2,13.9
			c0.3,2.1,1,4.4,0.5,6.5c-0.4,1.9-1.6,3.2-3.2,4.2l1,1.6l12.2-7.2c-0.2-0.4-0.4-0.7-0.6-1.1c-0.4-0.6-0.3-0.6-1-0.3
			c-1.2,0.5-2.9,1.4-4.2,0.9c-1.1-0.4-1.3-2.3-1.5-3.2c-0.3-1.7-0.6-3.3-0.9-5l10.3-6.1c1.6,1.2,3.3,2.5,4.9,3.7
			c0.6,0.5,1.4,0.9,1.9,1.6c0.8,1.2-2.6,3.3-3.4,3.9l1,1.6l16.3-9.6c-0.2-0.4-0.4-0.7-0.6-1.1C291.1,321.6,291.1,321.8,290.3,322.1z
			 M260.7,325.6c-0.7-4.4-1.4-8.9-2.1-13.3l10.7,8.3C266.5,322.2,263.6,323.9,260.7,325.6z"/>
		<path class="logo-fill" d="M321.8,274.2c-0.3,0.4,0.8,1.9,1,2.4c0.9,1.9,2.2,4.4,2,6.6c-0.2,2.2-2.3,4.5-3.7,6.2
			c-1.4,1.7-2.9,3.5-5.2,2.1c-1.6-1-3-2.3-4.5-3.4c-2.4-1.9-4.9-3.9-7.3-5.8c-2.1-1.7-4.3-3.4-6.4-5.1c-0.4-0.3-0.8-0.6-1.2-0.9
			c-2.3-1.8-0.4-4.2,0.8-6.1l-1.5-1.2l-11.8,14.9c0.4,0.3,0.8,0.6,1.2,1c0.3,0.3,0.3,0.2,0.6-0.1c0.4-0.4,0.8-0.7,1.2-1
			c1.4-1.1,2.7-1.7,4.3-0.5c3.9,3.1,7.8,6.2,11.7,9.2c2.1,1.6,4.1,3.3,6.2,4.9c0.4,0.3,0.8,0.6,1.2,0.9c2.2,1.8,0.5,4.1-0.7,5.9
			l1.5,1.2l19.8-25l-8.3-7.4C322.5,273.4,322.2,273.8,321.8,274.2z"/>
		<path class="logo-fill" d="M342.8,223.5c-0.1,0.3,1.8,1.8,2,2.1c1.4,1.4,3.6,3.4,4,5.5c0.2,1.2-0.1,2.5-0.4,3.6
			c-0.3,1.3-0.7,2.5-1.2,3.8c-0.7,2-1.6,3.6-3.9,3.2c-1.8-0.3-3.6-1.1-5.3-1.6c-3-1-5.9-1.9-8.9-2.9c-2.6-0.8-5.2-1.7-7.8-2.5
			c-0.5-0.2-1-0.3-1.4-0.5c-2.8-0.9-1.8-3.8-1.3-6l-1.8-0.6l-5.9,18.1c0.5,0.2,1.1,0.4,1.6,0.5c0.4,0.1,1.1-1.7,1.4-2.1
			c0.9-1.5,2-2.2,3.7-1.6c4.8,1.6,9.7,3.1,14.5,4.7c2.5,0.8,4.9,1.6,7.4,2.4c0.4,0.1,0.8,0.3,1.3,0.4c2.7,0.9,1.8,3.6,1.3,5.8
			l1.8,0.6l9.9-30.3l-10.3-4.1C343.2,222.5,343,223,342.8,223.5z"/>
		<polygon class="logo-fill" points="34,198.8 41.7,191.9 50.6,197.1 46.4,187.6 54.1,180.7 43.8,181.8 39.6,172.3 37.5,182.4 27.2,183.5 
			36.1,188.7 		"/>
		<polygon class="logo-fill" points="40.5,139.3 50.3,135.9 56.5,144.1 56.3,133.8 66.1,130.4 56.2,127.4 56,117.1 50.1,125.5 40.2,122.5 
			46.4,130.8 		"/>
		<polygon class="logo-fill" points="325.9,180.7 333.6,187.6 329.4,197.1 338.3,191.9 346,198.8 343.9,188.7 352.8,183.5 342.5,182.4 
			340.4,172.3 336.2,181.8 		"/>
		<polygon class="logo-fill" points="323.7,133.8 323.5,144.1 329.7,135.9 339.5,139.3 333.6,130.8 339.8,122.5 329.9,125.5 324,117.1 
			323.8,127.4 313.9,130.4 		"/>
	</g>
</g>
</svg>
